ISO-10303-21;
HEADER;
FILE_DESCRIPTION (( 'STEP AP214' ),
    '1' );
FILE_NAME ('RCUCTE.STEP',
    '2025-10-15T16:35:47',
    ( '' ),
    ( '' ),
    'SwSTEP 2.0',
    'SolidWorks 2021',
    '' );
FILE_SCHEMA (( 'AUTOMOTIVE_DESIGN' ));
ENDSEC;

DATA;
#1 = DIRECTION ( 'NONE',  ( 0.000000000000000000, -0.000000000000000000, 1.000000000000000000 ) ) ;
#2 = PLANE ( 'NONE',  #829 ) ;
#3 = AXIS2_PLACEMENT_3D ( 'NONE', #868, #171, #275 ) ;
#4 = EDGE_CURVE ( 'NONE', #342, #1088, #843, .T. ) ;
#5 = VERTEX_POINT ( 'NONE', #482 ) ;
#6 = LINE ( 'NONE', #363, #990 ) ;
#7 = DIRECTION ( 'NONE',  ( -0.000000000000000000, -0.000000000000000000, -1.000000000000000000 ) ) ;
#8 = ORIENTED_EDGE ( 'NONE', *, *, #654, .T. ) ;
#9 = CARTESIAN_POINT ( 'NONE',  ( 0.05300000000000000544, 0.03550000000000032990, 0.03099999999999999978 ) ) ;
#10 = VERTEX_POINT ( 'NONE', #671 ) ;
#11 = PLANE ( 'NONE',  #841 ) ;
#12 = EDGE_CURVE ( 'NONE', #814, #1067, #1122, .T. ) ;
#13 = CARTESIAN_POINT ( 'NONE',  ( 0.05311571748426215794, 0.03540918767829128594, 0.02902267383227367589 ) ) ;
#14 = ORIENTED_EDGE ( 'NONE', *, *, #908, .T. ) ;
#15 = CARTESIAN_POINT ( 'NONE',  ( 0.009000000000000001055, 0.000000000000000000, 0.001500000000000001115 ) ) ;
#16 = VECTOR ( 'NONE', #893, 39.37007874015748143 ) ;
#17 = ORIENTED_EDGE ( 'NONE', *, *, #307, .T. ) ;
#18 = CARTESIAN_POINT ( 'NONE',  ( 0.02999999999999999889, 7.114187483500685465E-19, 0.03099999999999999978 ) ) ;
#19 = CARTESIAN_POINT ( 'NONE',  ( 0.05399999999999999939, 0.03599999999999999728, 0.02850000000000000103 ) ) ;
#20 = ORIENTED_EDGE ( 'NONE', *, *, #123, .T. ) ;
#21 = DIRECTION ( 'NONE',  ( 0.000000000000000000, 0.000000000000000000, 1.000000000000000000 ) ) ;
#22 = VECTOR ( 'NONE', #716, 39.37007874015748143 ) ;
#23 = ORIENTED_EDGE ( 'NONE', *, *, #307, .F. ) ;
#24 = DIRECTION ( 'NONE',  ( 0.000000000000000000, 0.000000000000000000, 1.000000000000000000 ) ) ;
#25 = ORIENTED_EDGE ( 'NONE', *, *, #920, .F. ) ;
#26 = ORIENTED_EDGE ( 'NONE', *, *, #781, .F. ) ;
#27 = DIRECTION ( 'NONE',  ( 1.000000000000000000, 0.000000000000000000, 0.000000000000000000 ) ) ;
#28 = ORIENTED_EDGE ( 'NONE', *, *, #1046, .T. ) ;
#29 = STYLED_ITEM ( 'NONE', ( #836 ), #33 ) ;
#30 = CARTESIAN_POINT ( 'NONE',  ( 0.009000000000000001055, 0.008999999999999997585, 0.002499999999999998751 ) ) ;
#31 = ORIENTED_EDGE ( 'NONE', *, *, #110, .F. ) ;
#32 = CARTESIAN_POINT ( 'NONE',  ( 0.05300000000000000544, 0.03550000000000032990, 0.000000000000000000 ) ) ;
#33 = MANIFOLD_SOLID_BREP ( 'Fillet2', #980 ) ;
#34 = DIRECTION ( 'NONE',  ( -1.000000000000000000, 0.000000000000000000, 0.000000000000000000 ) ) ;
#35 = EDGE_CURVE ( 'NONE', #560, #910, #1017, .T. ) ;
#36 = DIRECTION ( 'NONE',  ( 1.000000000000000000, 0.000000000000000000, 0.000000000000000000 ) ) ;
#37 = VECTOR ( 'NONE', #403, 39.37007874015748143 ) ;
#38 = FILL_AREA_STYLE ('',( #503 ) ) ;
#39 = ORIENTED_EDGE ( 'NONE', *, *, #61, .T. ) ;
#40 = CARTESIAN_POINT ( 'NONE',  ( 0.06300000000000000044, 0.000000000000000000, 0.02850000000000000103 ) ) ;
#41 = CARTESIAN_POINT ( 'NONE',  ( -6.402768735150613066E-19, 0.008999999999999995851, 0.002499999999999998751 ) ) ;
#42 = DIRECTION ( 'NONE',  ( 1.000000000000000000, 7.114187483500684848E-17, 0.000000000000000000 ) ) ;
#43 = DIRECTION ( 'NONE',  ( 0.000000000000000000, 0.000000000000000000, 1.000000000000000000 ) ) ;
#44 = VERTEX_POINT ( 'NONE', #400 ) ;
#45 = CYLINDRICAL_SURFACE ( 'NONE', #302, 0.002499999999999998751 ) ;
#46 = CARTESIAN_POINT ( 'NONE',  ( 0.05329322602466404768, 0.03524193582673632724, 0.002207439430472884611 ) ) ;
#47 = EDGE_CURVE ( 'NONE', #485, #173, #234, .T. ) ;
#48 = CARTESIAN_POINT ( 'NONE',  ( 0.01000000000000000715, 0.03550000000000000377, 0.001593245326812658177 ) ) ;
#49 = FACE_OUTER_BOUND ( 'NONE', #1131, .T. ) ;
#50 =( NAMED_UNIT ( * ) SI_UNIT ( $, .STERADIAN. ) SOLID_ANGLE_UNIT ( ) );
#51 = ORIENTED_EDGE ( 'NONE', *, *, #166, .F. ) ;
#52 = CARTESIAN_POINT ( 'NONE',  ( 0.05300000000000000544, 0.03550000000000032990, 0.03099999999999999978 ) ) ;
#53 = LINE ( 'NONE', #840, #37 ) ;
#54 = CARTESIAN_POINT ( 'NONE',  ( 0.009482484629217472621, 0.03498242951574070253, 0.002379596875392061238 ) ) ;
#55 = ORIENTED_EDGE ( 'NONE', *, *, #507, .F. ) ;
#56 = CIRCLE ( 'NONE', #229, 0.009000000000000001055 ) ;
#57 = ORIENTED_EDGE ( 'NONE', *, *, #426, .F. ) ;
#58 = CARTESIAN_POINT ( 'NONE',  ( 0.05149999999999999717, 0.03599999999999999728, 0.000000000000000000 ) ) ;
#59 = CARTESIAN_POINT ( 'NONE',  ( 0.009937495338777640672, 0.03545180738855343433, 0.02914051193419178037 ) ) ;
#60 = CARTESIAN_POINT ( 'NONE',  ( 0.000000000000000000, 0.000000000000000000, 0.03099999999999999978 ) ) ;
#61 = EDGE_CURVE ( 'NONE', #614, #511, #587, .T. ) ;
#62 = LINE ( 'NONE', #690, #184 ) ;
#63 = ORIENTED_EDGE ( 'NONE', *, *, #198, .F. ) ;
#64 = CARTESIAN_POINT ( 'NONE',  ( 0.05399999999999999939, 0.009000000000000001055, 0.02850000000000000103 ) ) ;
#65 = VECTOR ( 'NONE', #224, 39.37007874015748143 ) ;
#66 = LINE ( 'NONE', #1133, #858 ) ;
#67 = VECTOR ( 'NONE', #1009, 39.37007874015748143 ) ;
#68 = CYLINDRICAL_SURFACE ( 'NONE', #393, 0.001000000000000000021 ) ;
#69 = VECTOR ( 'NONE', #188, 39.37007874015748143 ) ;
#70 = VECTOR ( 'NONE', #450, 39.37007874015748143 ) ;
#71 = ORIENTED_EDGE ( 'NONE', *, *, #123, .F. ) ;
#72 = CARTESIAN_POINT ( 'NONE',  ( 0.000000000000000000, 0.03599999999999999728, 0.03099999999999999978 ) ) ;
#73 = ADVANCED_FACE ( 'NONE', ( #49 ), #129, .F. ) ;
#74 = ORIENTED_EDGE ( 'NONE', *, *, #946, .T. ) ;
#75 = LINE ( 'NONE', #331, #968 ) ;
#76 = EDGE_CURVE ( 'NONE', #173, #991, #670, .T. ) ;
#77 = LINE ( 'NONE', #84, #637 ) ;
#78 = VECTOR ( 'NONE', #287, 39.37007874015748143 ) ;
#79 = CARTESIAN_POINT ( 'NONE',  ( 0.06300000000000000044, 0.03599999999999999728, 0.002499999999999997016 ) ) ;
#80 = CARTESIAN_POINT ( 'NONE',  ( 0.05149999999999999717, 0.03599999999999999728, 0.03099999999999999978 ) ) ;
#81 = B_SPLINE_CURVE_WITH_KNOTS ( 'NONE', 3,
 ( #1041, #606, #677, #940, #124, #501, #308, #54, #419, #489, #399, #926, #128, #842, #1025, #226, #593, #48, #700 ),
 .UNSPECIFIED., .F., .F.,
 ( 4, 3, 3, 3, 3, 3, 4 ),
 ( 0.000000000000000000, 2.128922665083325609E-05, 3.675984011125065854E-05, 4.720123113880520281E-05, 5.552574810585622205E-05, 6.393078411535694692E-05, 7.097278241248455724E-05 ),
 .UNSPECIFIED. ) ;
#82 = ORIENTED_EDGE ( 'NONE', *, *, #619, .T. ) ;
#83 = CARTESIAN_POINT ( 'NONE',  ( 0.05399999999999999939, 0.03349999999999999506, 0.02850000000000000103 ) ) ;
#84 = CARTESIAN_POINT ( 'NONE',  ( -6.402768735150613066E-19, 0.008999999999999995851, 0.02850000000000000103 ) ) ;
#85 = EDGE_CURVE ( 'NONE', #452, #152, #621, .T. ) ;
#86 = CARTESIAN_POINT ( 'NONE',  ( 0.05399999999999999939, 0.009000000000000001055, 0.002499999999999998751 ) ) ;
#87 = FACE_OUTER_BOUND ( 'NONE', #389, .T. ) ;
#88 = ORIENTED_EDGE ( 'NONE', *, *, #901, .F. ) ;
#89 = LINE ( 'NONE', #278, #684 ) ;
#90 = CARTESIAN_POINT ( 'NONE',  ( 0.01000000000000000021, 0.03550000000000032990, 0.000000000000000000 ) ) ;
#91 = CARTESIAN_POINT ( 'NONE',  ( 4.739000847409537175E-34, 0.000000000000000000, 0.02850000000000000103 ) ) ;
#92 = DIRECTION ( 'NONE',  ( -0.000000000000000000, 1.000000000000000000, 0.000000000000000000 ) ) ;
#93 = PLANE ( 'NONE',  #745 ) ;
#94 = ORIENTED_EDGE ( 'NONE', *, *, #738, .T. ) ;
#95 = FACE_OUTER_BOUND ( 'NONE', #1011, .T. ) ;
#96 = CARTESIAN_POINT ( 'NONE',  ( 0.02999999999999999889, 0.000000000000000000, 0.03099999999999999978 ) ) ;
#97 = AXIS2_PLACEMENT_3D ( 'NONE', #135, #1018, #695 ) ;
#98 = ADVANCED_FACE ( 'NONE', ( #165 ), #702, .F. ) ;
#99 = ORIENTED_EDGE ( 'NONE', *, *, #1115, .F. ) ;
#100 = DIRECTION ( 'NONE',  ( -1.000000000000000000, 0.000000000000000000, 0.000000000000000000 ) ) ;
#101 = DIRECTION ( 'NONE',  ( -1.000000000000000000, 0.000000000000000000, 0.000000000000000000 ) ) ;
#102 = ORIENTED_EDGE ( 'NONE', *, *, #746, .T. ) ;
#103 = CIRCLE ( 'NONE', #758, 0.002499999999999998751 ) ;
#104 = EDGE_LOOP ( 'NONE', ( #57, #112, #1050, #1135 ) ) ;
#105 = LINE ( 'NONE', #445, #913 ) ;
#106 = ORIENTED_EDGE ( 'NONE', *, *, #426, .T. ) ;
#107 = CARTESIAN_POINT ( 'NONE',  ( 0.05400000000000000633, 0.000000000000000000, 0.02949999999999999845 ) ) ;
#108 = AXIS2_PLACEMENT_3D ( 'NONE', #195, #635, #176 ) ;
#109 = EDGE_LOOP ( 'NONE', ( #978, #697, #468, #280, #203, #855 ) ) ;
#110 = EDGE_CURVE ( 'NONE', #348, #877, #103, .T. ) ;
#111 = DIRECTION ( 'NONE',  ( -0.000000000000000000, -1.000000000000000000, -0.000000000000000000 ) ) ;
#112 = ORIENTED_EDGE ( 'NONE', *, *, #157, .T. ) ;
#113 = ADVANCED_FACE ( 'NONE', ( #87 ), #151, .F. ) ;
#114 = AXIS2_PLACEMENT_3D ( 'NONE', #1136, #961, #773 ) ;
#115 = ORIENTED_EDGE ( 'NONE', *, *, #448, .T. ) ;
#116 = ORIENTED_EDGE ( 'NONE', *, *, #12, .F. ) ;
#117 = CARTESIAN_POINT ( 'NONE',  ( 0.05149999999999999717, 0.008999999999999999320, 0.002499999999999998751 ) ) ;
#118 = ORIENTED_EDGE ( 'NONE', *, *, #1108, .F. ) ;
#119 =( CONVERSION_BASED_UNIT ( 'INCH', #666 ) LENGTH_UNIT ( ) NAMED_UNIT ( #204 ) );
#120 = ORIENTED_EDGE ( 'NONE', *, *, #321, .T. ) ;
#121 = DIRECTION ( 'NONE',  ( -1.000000000000000000, 0.000000000000000000, 0.000000000000000000 ) ) ;
#122 = AXIS2_PLACEMENT_3D ( 'NONE', #714, #520, #1038 ) ;
#123 = EDGE_CURVE ( 'NONE', #452, #1088, #240, .T. ) ;
#124 = CARTESIAN_POINT ( 'NONE',  ( 0.009207794115674397192, 0.03451846604779464783, 0.002480532359359068680 ) ) ;
#125 = DIRECTION ( 'NONE',  ( -0.000000000000000000, 0.000000000000000000, 1.000000000000000000 ) ) ;
#126 = EDGE_LOOP ( 'NONE', ( #569, #1140, #972, #115 ) ) ;
#127 = FACE_OUTER_BOUND ( 'NONE', #1089, .T. ) ;
#128 = CARTESIAN_POINT ( 'NONE',  ( 0.009828919707714328310, 0.03535943288578384525, 0.002059367605571504282 ) ) ;
#129 = CYLINDRICAL_SURFACE ( 'NONE', #155, 0.002499999999999998751 ) ;
#130 = AXIS2_PLACEMENT_3D ( 'NONE', #862, #539, #953 ) ;
#131 = SURFACE_SIDE_STYLE ('',( #936 ) ) ;
#132 = ORIENTED_EDGE ( 'NONE', *, *, #233, .T. ) ;
#133 = DIRECTION ( 'NONE',  ( 1.000000000000000000, 0.000000000000000000, 0.000000000000000000 ) ) ;
#134 = CARTESIAN_POINT ( 'NONE',  ( 0.05352374088988368084, 0.03496781225318935232, 0.002379304986925017459 ) ) ;
#135 = CARTESIAN_POINT ( 'NONE',  ( 0.009000000000000001055, 0.008999999999999997585, 0.02850000000000000103 ) ) ;
#136 =( LENGTH_UNIT ( ) NAMED_UNIT ( * ) SI_UNIT ( $, .METRE. ) );
#137 = ORIENTED_EDGE ( 'NONE', *, *, #481, .T. ) ;
#138 = DIRECTION ( 'NONE',  ( -1.000000000000000000, 0.000000000000000000, 0.000000000000000000 ) ) ;
#139 = CARTESIAN_POINT ( 'NONE',  ( 0.05397012367994689919, 0.03396874055711458090, 0.002499787898718363894 ) ) ;
#140 = CARTESIAN_POINT ( 'NONE',  ( 0.05399999999999999939, 0.03349999999999999506, 0.002499999999999998751 ) ) ;
#141 = VECTOR ( 'NONE', #1030, 39.37007874015748143 ) ;
#142 = EDGE_LOOP ( 'NONE', ( #566, #20, #924, #82, #548, #295, #1027, #882, #582, #935, #667, #1085 ) ) ;
#143 = ORIENTED_EDGE ( 'NONE', *, *, #738, .F. ) ;
#144 = FACE_OUTER_BOUND ( 'NONE', #187, .T. ) ;
#145 = EDGE_CURVE ( 'NONE', #401, #10, #315, .T. ) ;
#146 = CARTESIAN_POINT ( 'NONE',  ( -6.402768735150613066E-19, 0.008999999999999995851, 0.02850000000000000103 ) ) ;
#147 = DIRECTION ( 'NONE',  ( 1.000000000000000000, 0.000000000000000000, 0.000000000000000000 ) ) ;
#148 = VECTOR ( 'NONE', #92, 39.37007874015748143 ) ;
#149 = ORIENTED_EDGE ( 'NONE', *, *, #371, .F. ) ;
#150 = PRODUCT_RELATED_PRODUCT_CATEGORY ( 'part', '', ( #891 ) ) ;
#151 = CYLINDRICAL_SURFACE ( 'NONE', #122, 0.002499999999999998751 ) ;
#152 = VERTEX_POINT ( 'NONE', #1134 ) ;
#153 = DIRECTION ( 'NONE',  ( -0.000000000000000000, -0.000000000000000000, 1.000000000000000000 ) ) ;
#154 = CARTESIAN_POINT ( 'NONE',  ( 0.009760921782689281970, 0.03529767798200642709, 0.02884665744257424932 ) ) ;
#155 = AXIS2_PLACEMENT_3D ( 'NONE', #496, #43, #1033 ) ;
#156 = DIRECTION ( 'NONE',  ( 2.371395827833562438E-17, -1.000000000000000000, 0.000000000000000000 ) ) ;
#157 = EDGE_CURVE ( 'NONE', #914, #577, #347, .T. ) ;
#158 = DIRECTION ( 'NONE',  ( 1.000000000000000000, 0.000000000000000000, 0.000000000000000000 ) ) ;
#159 = VECTOR ( 'NONE', #804, 39.37007874015748143 ) ;
#160 = VECTOR ( 'NONE', #262, 39.37007874015748143 ) ;
#161 = EDGE_LOOP ( 'NONE', ( #490, #132, #292, #896 ) ) ;
#162 = CARTESIAN_POINT ( 'NONE',  ( 0.01000000000000000021, 0.04499999999999999833, 0.03099999999999999978 ) ) ;
#163 = CARTESIAN_POINT ( 'NONE',  ( 0.02999999999999999889, 0.000000000000000000, 0.002500000000000000919 ) ) ;
#164 = CARTESIAN_POINT ( 'NONE',  ( 0.05149999999999999717, 0.03349999999999999506, 0.000000000000000000 ) ) ;
#165 = FACE_OUTER_BOUND ( 'NONE', #212, .T. ) ;
#166 = EDGE_CURVE ( 'NONE', #428, #452, #1053, .T. ) ;
#167 = EDGE_LOOP ( 'NONE', ( #88, #434, #686, #1029 ) ) ;
#168 = DIRECTION ( 'NONE',  ( -0.000000000000000000, -0.000000000000000000, -1.000000000000000000 ) ) ;
#169 = CARTESIAN_POINT ( 'NONE',  ( 0.009962086514545416896, 0.03547099520832926872, 0.02922725554353965485 ) ) ;
#170 = VECTOR ( 'NONE', #293, 39.37007874015748143 ) ;
#171 = DIRECTION ( 'NONE',  ( -0.000000000000000000, -0.000000000000000000, -1.000000000000000000 ) ) ;
#172 = DIRECTION ( 'NONE',  ( -0.000000000000000000, -1.000000000000000000, -0.000000000000000000 ) ) ;
#173 = VERTEX_POINT ( 'NONE', #80 ) ;
#174 = DIRECTION ( 'NONE',  ( 0.000000000000000000, 0.000000000000000000, 1.000000000000000000 ) ) ;
#175 = CARTESIAN_POINT ( 'NONE',  ( 0.05400000000000000633, 0.04499999999999999833, 0.001500000000000000682 ) ) ;
#176 = DIRECTION ( 'NONE',  ( -0.000000000000000000, 0.000000000000000000, 1.000000000000000000 ) ) ;
#177 = DIRECTION ( 'NONE',  ( 1.000000000000000000, 0.000000000000000000, -0.000000000000000000 ) ) ;
#178 = ORIENTED_EDGE ( 'NONE', *, *, #321, .F. ) ;
#179 = CARTESIAN_POINT ( 'NONE',  ( 0.06300000000000000044, 0.000000000000000000, 0.002499999999999998751 ) ) ;
#180 = DIRECTION ( 'NONE',  ( 0.000000000000000000, 0.000000000000000000, -1.000000000000000000 ) ) ;
#181 = PLANE ( 'NONE',  #962 ) ;
#182 = DIRECTION ( 'NONE',  ( -0.000000000000000000, -1.000000000000000000, -0.000000000000000000 ) ) ;
#183 = EDGE_CURVE ( 'NONE', #599, #1034, #340, .T. ) ;
#184 = VECTOR ( 'NONE', #1042, 39.37007874015748143 ) ;
#185 = ORIENTED_EDGE ( 'NONE', *, *, #691, .F. ) ;
#186 = CARTESIAN_POINT ( 'NONE',  ( 0.05300000000000000544, 0.03550000000000032990, 0.001500000000000000682 ) ) ;
#187 = EDGE_LOOP ( 'NONE', ( #374, #710, #595, #362 ) ) ;
#188 = DIRECTION ( 'NONE',  ( 0.000000000000000000, 1.000000000000000000, 0.000000000000000000 ) ) ;
#189 = VECTOR ( 'NONE', #411, 39.37007874015748143 ) ;
#190 = PRODUCT_DEFINITION ( 'UNKNOWN', '', #314, #385 ) ;
#191 = ORIENTED_EDGE ( 'NONE', *, *, #145, .F. ) ;
#192 = DIRECTION ( 'NONE',  ( 1.000000000000000000, 0.000000000000000000, 0.000000000000000000 ) ) ;
#193 = FACE_OUTER_BOUND ( 'NONE', #142, .T. ) ;
#194 = ORIENTED_EDGE ( 'NONE', *, *, #380, .F. ) ;
#195 = CARTESIAN_POINT ( 'NONE',  ( 0.05300000000000000544, 0.000000000000000000, 0.03099999999999999978 ) ) ;
#196 = CARTESIAN_POINT ( 'NONE',  ( 0.05300000000000000544, 0.03550000000000032990, 0.001500000000000000682 ) ) ;
#197 = EDGE_CURVE ( 'NONE', #805, #342, #864, .T. ) ;
#198 = EDGE_CURVE ( 'NONE', #401, #471, #256, .T. ) ;
#199 = EDGE_LOOP ( 'NONE', ( #51, #563, #120, #1071, #1152, #71 ) ) ;
#200 = CARTESIAN_POINT ( 'NONE',  ( 0.05303868775761343135, 0.03547039082026144652, 0.02922453898163673500 ) ) ;
#201 = ORIENTED_EDGE ( 'NONE', *, *, #157, .F. ) ;
#202 = AXIS2_PLACEMENT_3D ( 'NONE', #680, #395, #837 ) ;
#203 = ORIENTED_EDGE ( 'NONE', *, *, #627, .T. ) ;
#204 = DIMENSIONAL_EXPONENTS ( 1.000000000000000000, 0.000000000000000000, 0.000000000000000000, 0.000000000000000000, 0.000000000000000000, 0.000000000000000000, 0.000000000000000000 ) ;
#205 = EDGE_CURVE ( 'NONE', #1067, #382, #796, .T. ) ;
#206 = VERTEX_POINT ( 'NONE', #791 ) ;
#207 = CARTESIAN_POINT ( 'NONE',  ( 0.009000000000000001055, 0.01149999999999999634, 0.002499999999999998751 ) ) ;
#208 = CARTESIAN_POINT ( 'NONE',  ( 0.03300000000000000155, 0.000000000000000000, 0.002499999999999998751 ) ) ;
#209 = AXIS2_PLACEMENT_3D ( 'NONE', #239, #757, #509 ) ;
#210 = ORIENTED_EDGE ( 'NONE', *, *, #1060, .F. ) ;
#211 = PRODUCT_CONTEXT ( 'NONE', #673, 'mechanical' ) ;
#212 = EDGE_LOOP ( 'NONE', ( #918, #535, #178, #929 ) ) ;
#213 = CARTESIAN_POINT ( 'NONE',  ( 0.01000000000000000021, 0.04499999999999999833, 0.000000000000000000 ) ) ;
#214 = ADVANCED_FACE ( 'NONE', ( #1146 ), #776, .F. ) ;
#215 = CARTESIAN_POINT ( 'NONE',  ( 0.05344964918689225353, 0.03506996592346910135, 0.002339174600928797029 ) ) ;
#216 = LINE ( 'NONE', #921, #22 ) ;
#217 = ORIENTED_EDGE ( 'NONE', *, *, #1073, .T. ) ;
#218 = VECTOR ( 'NONE', #927, 39.37007874015748143 ) ;
#219 = ORIENTED_EDGE ( 'NONE', *, *, #222, .T. ) ;
#220 = CARTESIAN_POINT ( 'NONE',  ( 0.05362999013054160768, 0.03482132149296349871, 0.002436852902106569768 ) ) ;
#221 = STYLED_ITEM ( 'NONE', ( #413 ), #1117 ) ;
#222 = EDGE_CURVE ( 'NONE', #206, #511, #250, .T. ) ;
#223 = DIRECTION ( 'NONE',  ( 0.000000000000000000, 0.000000000000000000, -1.000000000000000000 ) ) ;
#224 = DIRECTION ( 'NONE',  ( -0.000000000000000000, -0.000000000000000000, 1.000000000000000000 ) ) ;
#225 = ORIENTED_EDGE ( 'NONE', *, *, #573, .T. ) ;
#226 = CARTESIAN_POINT ( 'NONE',  ( 0.009961312242386569094, 0.03547039082026144652, 0.001775461018363272588 ) ) ;
#227 = VECTOR ( 'NONE', #973, 39.37007874015748143 ) ;
#228 = ORIENTED_EDGE ( 'NONE', *, *, #1046, .F. ) ;
#229 = AXIS2_PLACEMENT_3D ( 'NONE', #86, #964, #354 ) ;
#230 =( NAMED_UNIT ( * ) PLANE_ANGLE_UNIT ( ) SI_UNIT ( $, .RADIAN. ) );
#231 = ORIENTED_EDGE ( 'NONE', *, *, #110, .T. ) ;
#232 = FACE_OUTER_BOUND ( 'NONE', #848, .T. ) ;
#233 = EDGE_CURVE ( 'NONE', #510, #648, #421, .T. ) ;
#234 = LINE ( 'NONE', #309, #65 ) ;
#235 = EDGE_CURVE ( 'NONE', #44, #577, #62, .T. ) ;
#236 = VERTEX_POINT ( 'NONE', #527 ) ;
#237 = CARTESIAN_POINT ( 'NONE',  ( 0.01000000000000000021, 0.03550000000000032990, 0.03099999999999999978 ) ) ;
#238 = CARTESIAN_POINT ( 'NONE',  ( 0.05399176634999586916, 0.03370273247650110160, 0.002499966102929302835 ) ) ;
#239 = CARTESIAN_POINT ( 'NONE',  ( 0.009000000000000001055, 0.000000000000000000, 0.02949999999999999845 ) ) ;
#240 = LINE ( 'NONE', #709, #983 ) ;
#241 = ORIENTED_EDGE ( 'NONE', *, *, #605, .F. ) ;
#242 = PLANE ( 'NONE',  #895 ) ;
#243 = FACE_OUTER_BOUND ( 'NONE', #167, .T. ) ;
#244 = VECTOR ( 'NONE', #933, 39.37007874015748143 ) ;
#245 = ORIENTED_EDGE ( 'NONE', *, *, #573, .F. ) ;
#246 = CARTESIAN_POINT ( 'NONE',  ( 0.009000000000000001055, 0.04499999999999999833, 0.03099999999999999978 ) ) ;
#247 = ADVANCED_FACE ( 'NONE', ( #243 ), #68, .F. ) ;
#248 = CARTESIAN_POINT ( 'NONE',  ( 0.01000000000000000021, 0.03550000000000032990, 0.02850000000000000103 ) ) ;
#249 = B_SPLINE_CURVE_WITH_KNOTS ( 'NONE', 3,
 ( #196, #327, #391, #925, #828, #663, #597, #744, #304, #46, #1012, #215, #134, #220, #945, #488, #584, #139, #238, #931, #416, #833 ),
 .UNSPECIFIED., .F., .F.,
 ( 4, 3, 3, 3, 3, 3, 3, 4 ),
 ( 0.000000000000000000, 7.033014106871255941E-06, 1.405003630304330395E-05, 2.124793648530048197E-05, 3.135866998531271948E-05, 4.589458987508857843E-05, 6.639459718459847233E-05, 7.152529613230448652E-05 ),
 .UNSPECIFIED. ) ;
#250 = LINE ( 'NONE', #1061, #160 ) ;
#251 = ORIENTED_EDGE ( 'NONE', *, *, #570, .T. ) ;
#252 = DIRECTION ( 'NONE',  ( -0.000000000000000000, -0.000000000000000000, -1.000000000000000000 ) ) ;
#253 = CARTESIAN_POINT ( 'NONE',  ( 0.009000000000000001055, 0.03356763320286637597, 0.02849999999999999409 ) ) ;
#254 = PLANE ( 'NONE',  #734 ) ;
#255 = EDGE_CURVE ( 'NONE', #5, #326, #977, .T. ) ;
#256 = LINE ( 'NONE', #954, #1019 ) ;
#257 = VECTOR ( 'NONE', #1, 39.37007874015748143 ) ;
#258 = EDGE_LOOP ( 'NONE', ( #902, #665, #31, #1112 ) ) ;
#259 = DIRECTION ( 'NONE',  ( -1.000000000000000000, 0.000000000000000000, 0.000000000000000000 ) ) ;
#260 = CARTESIAN_POINT ( 'NONE',  ( 0.05399999999999999939, 0.03599999999999999728, 0.002499999999999998751 ) ) ;
#261 = DIRECTION ( 'NONE',  ( 0.000000000000000000, 0.000000000000000000, -1.000000000000000000 ) ) ;
#262 = DIRECTION ( 'NONE',  ( 0.000000000000000000, 1.000000000000000000, 0.000000000000000000 ) ) ;
#263 = ORIENTED_EDGE ( 'NONE', *, *, #691, .T. ) ;
#264 = CARTESIAN_POINT ( 'NONE',  ( 0.02999999999999999889, 0.008999999999999997585, 0.002499999999999998751 ) ) ;
#265 = VECTOR ( 'NONE', #223, 39.37007874015748143 ) ;
#266 = CIRCLE ( 'NONE', #438, 0.0009999999999999987198 ) ;
#267 = FACE_OUTER_BOUND ( 'NONE', #161, .T. ) ;
#268 = DIRECTION ( 'NONE',  ( 1.000000000000000000, 0.000000000000000000, 0.000000000000000000 ) ) ;
#269 = CARTESIAN_POINT ( 'NONE',  ( 0.06300000000000000044, 0.009000000000000001055, 0.03099999999999999978 ) ) ;
#270 = VERTEX_POINT ( 'NONE', #1151 ) ;
#271 = DIRECTION ( 'NONE',  ( 0.000000000000000000, 0.000000000000000000, 1.000000000000000000 ) ) ;
#272 = ADVANCED_FACE ( 'NONE', ( #888 ), #547, .F. ) ;
#273 = CARTESIAN_POINT ( 'NONE',  ( 0.05379220588432559458, 0.03451846604779464783, 0.02851946764064093240 ) ) ;
#274 = AXIS2_PLACEMENT_3D ( 'NONE', #492, #486, #1097 ) ;
#275 = DIRECTION ( 'NONE',  ( -1.000000000000000000, 0.000000000000000000, 0.000000000000000000 ) ) ;
#276 = CIRCLE ( 'NONE', #410, 0.009000000000000001055 ) ;
#277 = ORIENTED_EDGE ( 'NONE', *, *, #497, .T. ) ;
#278 = CARTESIAN_POINT ( 'NONE',  ( 0.05399999999999999939, 0.01149999999999999981, 0.02850000000000000103 ) ) ;
#279 = LINE ( 'NONE', #299, #672 ) ;
#280 = ORIENTED_EDGE ( 'NONE', *, *, #789, .F. ) ;
#281 = LINE ( 'NONE', #1070, #484 ) ;
#282 = ORIENTED_EDGE ( 'NONE', *, *, #198, .T. ) ;
#283 = FACE_OUTER_BOUND ( 'NONE', #396, .T. ) ;
#284 = LINE ( 'NONE', #645, #430 ) ;
#285 = ORIENTED_EDGE ( 'NONE', *, *, #800, .F. ) ;
#286 = DIRECTION ( 'NONE',  ( 0.000000000000000000, 0.000000000000000000, -1.000000000000000000 ) ) ;
#287 = DIRECTION ( 'NONE',  ( 0.000000000000000000, -1.000000000000000000, 0.000000000000000000 ) ) ;
#288 = AXIS2_PLACEMENT_3D ( 'NONE', #64, #423, #967 ) ;
#289 = ADVANCED_FACE ( 'NONE', ( #458 ), #93, .T. ) ;
#290 = CIRCLE ( 'NONE', #912, 0.002499999999999998751 ) ;
#291 = ADVANCED_FACE ( 'NONE', ( #127 ), #390, .T. ) ;
#292 = ORIENTED_EDGE ( 'NONE', *, *, #605, .T. ) ;
#293 = DIRECTION ( 'NONE',  ( -0.000000000000000000, 0.000000000000000000, -1.000000000000000000 ) ) ;
#294 = CARTESIAN_POINT ( 'NONE',  ( 0.01000000000000000021, 0.04499999999999999833, 0.000000000000000000 ) ) ;
#295 = ORIENTED_EDGE ( 'NONE', *, *, #1106, .T. ) ;
#296 = DIRECTION ( 'NONE',  ( 0.000000000000000000, 0.000000000000000000, 1.000000000000000000 ) ) ;
#297 = ADVANCED_FACE ( 'NONE', ( #743 ), #45, .F. ) ;
#298 = ORIENTED_EDGE ( 'NONE', *, *, #371, .T. ) ;
#299 = CARTESIAN_POINT ( 'NONE',  ( 0.01149999999999999981, 0.03599999999999999728, 0.002499999999999998751 ) ) ;
#300 = ORIENTED_EDGE ( 'NONE', *, *, #183, .T. ) ;
#301 = DIRECTION ( 'NONE',  ( 0.000000000000000000, -1.000000000000000000, 0.000000000000000000 ) ) ;
#302 = AXIS2_PLACEMENT_3D ( 'NONE', #839, #583, #589 ) ;
#303 = ORIENTED_EDGE ( 'NONE', *, *, #812, .F. ) ;
#304 = CARTESIAN_POINT ( 'NONE',  ( 0.05323907821731072715, 0.03529767798200642015, 0.002153342557425746550 ) ) ;
#305 = VERTEX_POINT ( 'NONE', #1016 ) ;
#306 = DIRECTION ( 'NONE',  ( 0.000000000000000000, -1.000000000000000000, -0.000000000000000000 ) ) ;
#307 = EDGE_CURVE ( 'NONE', #5, #357, #1105, .T. ) ;
#308 = CARTESIAN_POINT ( 'NONE',  ( 0.009409015806670034329, 0.03487032299230664184, 0.002412527298163854965 ) ) ;
#309 = CARTESIAN_POINT ( 'NONE',  ( 0.05149999999999999717, 0.03599999999999999728, 0.02850000000000000103 ) ) ;
#310 = AXIS2_PLACEMENT_3D ( 'NONE', #613, #948, #965 ) ;
#311 = ORIENTED_EDGE ( 'NONE', *, *, #1115, .T. ) ;
#312 = LINE ( 'NONE', #213, #1149 ) ;
#313 = CARTESIAN_POINT ( 'NONE',  ( 0.01000000000000000021, 0.03550000000000032990, 0.02949999999999999845 ) ) ;
#314 = PRODUCT_DEFINITION_FORMATION_WITH_SPECIFIED_SOURCE ( 'ANY', '', #891, .NOT_KNOWN. ) ;
#315 = CIRCLE ( 'NONE', #487, 0.002499999999999998751 ) ;
#316 = LINE ( 'NONE', #333, #265 ) ;
#317 = ORIENTED_EDGE ( 'NONE', *, *, #473, .T. ) ;
#318 = ORIENTED_EDGE ( 'NONE', *, *, #76, .F. ) ;
#319 = DIRECTION ( 'NONE',  ( -0.000000000000000000, 0.000000000000000000, -1.000000000000000000 ) ) ;
#320 = CARTESIAN_POINT ( 'NONE',  ( 0.03300000000000000155, 0.000000000000000000, 0.02850000000000000103 ) ) ;
#321 = EDGE_CURVE ( 'NONE', #681, #173, #659, .T. ) ;
#322 = CARTESIAN_POINT ( 'NONE',  ( 0.05399999999999999939, 0.04499999999999999833, 0.002500000000000000919 ) ) ;
#323 = ADVANCED_FACE ( 'NONE', ( #415 ), #849, .F. ) ;
#324 = AXIS2_PLACEMENT_3D ( 'NONE', #629, #803, #1063 ) ;
#325 = ORIENTED_EDGE ( 'NONE', *, *, #642, .T. ) ;
#326 = VERTEX_POINT ( 'NONE', #1008 ) ;
#327 = CARTESIAN_POINT ( 'NONE',  ( 0.05300000000000000544, 0.03550000000000032990, 0.001592296773056054056 ) ) ;
#328 = LINE ( 'NONE', #1037, #244 ) ;
#329 = CARTESIAN_POINT ( 'NONE',  ( -6.402768735150613066E-19, 0.008999999999999995851, 0.03099999999999999978 ) ) ;
#330 = ORIENTED_EDGE ( 'NONE', *, *, #653, .T. ) ;
#331 = CARTESIAN_POINT ( 'NONE',  ( 0.03300000000000000155, 7.825606231850754974E-19, 0.03099999999999999978 ) ) ;
#332 = CARTESIAN_POINT ( 'NONE',  ( 0.009370009869458410107, 0.03482132149296351953, 0.02856314709789343348 ) ) ;
#333 = CARTESIAN_POINT ( 'NONE',  ( 0.009000000000000001055, 0.01149999999999999634, 0.002499999999999998751 ) ) ;
#334 = DIRECTION ( 'NONE',  ( 0.000000000000000000, 1.000000000000000000, 0.000000000000000000 ) ) ;
#335 = EDGE_CURVE ( 'NONE', #305, #1067, #312, .T. ) ;
#336 = EDGE_LOOP ( 'NONE', ( #943, #277, #640, #99 ) ) ;
#337 = DIRECTION ( 'NONE',  ( 7.114187483500684848E-17, -1.000000000000000000, 0.000000000000000000 ) ) ;
#338 = VECTOR ( 'NONE', #356, 39.37007874015748143 ) ;
#339 = LINE ( 'NONE', #248, #493 ) ;
#340 = LINE ( 'NONE', #603, #70 ) ;
#341 = CIRCLE ( 'NONE', #607, 0.0009999999999999987198 ) ;
#342 = VERTEX_POINT ( 'NONE', #1023 ) ;
#343 = CARTESIAN_POINT ( 'NONE',  ( 0.009000000000000001055, 0.03349999999999999506, 0.02850000000000000103 ) ) ;
#344 = CARTESIAN_POINT ( 'NONE',  ( -6.402768735150613066E-19, 0.008999999999999995851, 0.03099999999999999978 ) ) ;
#345 = EDGE_CURVE ( 'NONE', #782, #541, #1004, .T. ) ;
#346 = DIRECTION ( 'NONE',  ( -1.000000000000000000, 0.000000000000000000, 0.000000000000000000 ) ) ;
#347 = LINE ( 'NONE', #1139, #1129 ) ;
#348 = VERTEX_POINT ( 'NONE', #207 ) ;
#349 = DIRECTION ( 'NONE',  ( -0.000000000000000000, 0.000000000000000000, -1.000000000000000000 ) ) ;
#350 = DIRECTION ( 'NONE',  ( 1.000000000000000000, 7.114187483500684848E-17, 0.000000000000000000 ) ) ;
#351 = AXIS2_PLACEMENT_3D ( 'NONE', #939, #662, #402 ) ;
#352 = ORIENTED_EDGE ( 'NONE', *, *, #756, .T. ) ;
#353 = DIRECTION ( 'NONE',  ( 0.000000000000000000, -1.000000000000000000, 0.000000000000000000 ) ) ;
#354 = DIRECTION ( 'NONE',  ( 1.000000000000000000, 0.000000000000000000, -2.371395827833561452E-16 ) ) ;
#355 = EDGE_CURVE ( 'NONE', #236, #741, #656, .T. ) ;
#356 = DIRECTION ( 'NONE',  ( -0.000000000000000000, -0.000000000000000000, -1.000000000000000000 ) ) ;
#357 = VERTEX_POINT ( 'NONE', #499 ) ;
#358 = CARTESIAN_POINT ( 'NONE',  ( 0.05400000000000000633, 0.04499999999999999833, 0.02949999999999999845 ) ) ;
#359 = CARTESIAN_POINT ( 'NONE',  ( 0.05301357670252190152, 0.03549000016509434863, 0.02931217230566263154 ) ) ;
#360 = AXIS2_PLACEMENT_3D ( 'NONE', #859, #425, #34 ) ;
#361 = CARTESIAN_POINT ( 'NONE',  ( 0.05300000000000000544, 0.000000000000000000, 1.224646799147353384E-18 ) ) ;
#362 = ORIENTED_EDGE ( 'NONE', *, *, #166, .T. ) ;
#363 = CARTESIAN_POINT ( 'NONE',  ( 3.061616997868383461E-19, 0.000000000000000000, 0.002500000000000000919 ) ) ;
#364 = CYLINDRICAL_SURFACE ( 'NONE', #388, 0.009000000000000001055 ) ;
#365 = CARTESIAN_POINT ( 'NONE',  ( 0.01149999999999999981, 0.01149999999999999634, 0.03099999999999999978 ) ) ;
#366 =( GEOMETRIC_REPRESENTATION_CONTEXT ( 3 ) GLOBAL_UNCERTAINTY_ASSIGNED_CONTEXT ( ( #1120 ) ) GLOBAL_UNIT_ASSIGNED_CONTEXT ( ( #916, #394, #580 ) ) REPRESENTATION_CONTEXT ( 'NONE', 'WORKASPACE' ) );
#367 = ORIENTED_EDGE ( 'NONE', *, *, #355, .T. ) ;
#368 = DIRECTION ( 'NONE',  ( 1.000000000000000000, 0.000000000000000000, -2.134256245050206194E-16 ) ) ;
#369 = DIMENSIONAL_EXPONENTS ( 1.000000000000000000, 0.000000000000000000, 0.000000000000000000, 0.000000000000000000, 0.000000000000000000, 0.000000000000000000, 0.000000000000000000 ) ;
#370 = VECTOR ( 'NONE', #427, 39.37007874015748143 ) ;
#371 = EDGE_CURVE ( 'NONE', #511, #655, #407, .T. ) ;
#372 = CARTESIAN_POINT ( 'NONE',  ( 0.05400000000000000633, 0.03377938617652011949, 0.02850000000000000103 ) ) ;
#373 = DIRECTION ( 'NONE',  ( 0.000000000000000000, -1.000000000000000000, 0.000000000000000000 ) ) ;
#374 = ORIENTED_EDGE ( 'NONE', *, *, #85, .T. ) ;
#375 = FACE_OUTER_BOUND ( 'NONE', #199, .T. ) ;
#376 = CARTESIAN_POINT ( 'NONE',  ( 0.05329051475407797084, 0.03524735277988053084, 0.02879027814499518848 ) ) ;
#377 = ORIENTED_EDGE ( 'NONE', *, *, #447, .F. ) ;
#378 = CYLINDRICAL_SURFACE ( 'NONE', #875, 0.002499999999999998751 ) ;
#379 = VECTOR ( 'NONE', #168, 39.37007874015748143 ) ;
#380 = EDGE_CURVE ( 'NONE', #991, #805, #572, .T. ) ;
#381 = VECTOR ( 'NONE', #42, 39.37007874015748143 ) ;
#382 = VERTEX_POINT ( 'NONE', #596 ) ;
#383 = DIRECTION ( 'NONE',  ( 1.000000000000000000, 7.114187483500684848E-17, 0.000000000000000000 ) ) ;
#384 = ORIENTED_EDGE ( 'NONE', *, *, #1143, .T. ) ;
#385 = PRODUCT_DEFINITION_CONTEXT ( 'detailed design', #418, 'design' ) ;
#386 = B_SPLINE_CURVE_WITH_KNOTS ( 'NONE', 3,
 ( #1087, #372, #740, #454, #273, #1000, #819, #799, #904, #721, #376, #461, #562, #13, #813, #200, #359, #657, #567 ),
 .UNSPECIFIED., .F., .F.,
 ( 4, 3, 3, 3, 3, 3, 4 ),
 ( 0.000000000000000000, 2.128922665083330691E-05, 3.675984011125067209E-05, 4.720123113880520958E-05, 5.552574810585630337E-05, 6.393078411535696047E-05, 7.097278241248440817E-05 ),
 .UNSPECIFIED. ) ;
#387 = ORIENTED_EDGE ( 'NONE', *, *, #1093, .T. ) ;
#388 = AXIS2_PLACEMENT_3D ( 'NONE', #1074, #898, #101 ) ;
#389 = EDGE_LOOP ( 'NONE', ( #303, #1081, #604, #352, #440, #674, #210, #692 ) ) ;
#390 = PLANE ( 'NONE',  #274 ) ;
#391 = CARTESIAN_POINT ( 'NONE',  ( 0.05301329144709193003, 0.03549020710934113615, 0.001685891981521870199 ) ) ;
#392 = EDGE_CURVE ( 'NONE', #270, #541, #505, .T. ) ;
#393 = AXIS2_PLACEMENT_3D ( 'NONE', #432, #869, #1066 ) ;
#394 =( NAMED_UNIT ( * ) PLANE_ANGLE_UNIT ( ) SI_UNIT ( $, .RADIAN. ) );
#395 = DIRECTION ( 'NONE',  ( 0.000000000000000000, 1.000000000000000000, 0.000000000000000000 ) ) ;
#396 = EDGE_LOOP ( 'NONE', ( #777, #491, #330, #1078, #185, #638, #764, #988, #742 ) ) ;
#397 = DIRECTION ( 'NONE',  ( -0.000000000000000000, 1.000000000000000000, -0.000000000000000000 ) ) ;
#398 = CIRCLE ( 'NONE', #801, 0.002499999999999998751 ) ;
#399 = CARTESIAN_POINT ( 'NONE',  ( 0.009709485245922033075, 0.03524735277988052390, 0.002209721855004816507 ) ) ;
#400 = CARTESIAN_POINT ( 'NONE',  ( 0.03300000000000000155, 0.000000000000000000, 0.002500000000000000919 ) ) ;
#401 = VERTEX_POINT ( 'NONE', #117 ) ;
#402 = DIRECTION ( 'NONE',  ( 1.000000000000000000, 0.000000000000000000, 0.000000000000000000 ) ) ;
#403 = DIRECTION ( 'NONE',  ( 0.000000000000000000, 0.000000000000000000, 1.000000000000000000 ) ) ;
#404 = PLANE ( 'NONE',  #664 ) ;
#405 = AXIS2_PLACEMENT_3D ( 'NONE', #30, #125, #36 ) ;
#406 = ORIENTED_EDGE ( 'NONE', *, *, #409, .T. ) ;
#407 = LINE ( 'NONE', #1113, #794 ) ;
#408 = CARTESIAN_POINT ( 'NONE',  ( 0.03300000000000000155, 0.008999999999999997585, 0.02850000000000000103 ) ) ;
#409 = EDGE_CURVE ( 'NONE', #792, #560, #827, .T. ) ;
#410 = AXIS2_PLACEMENT_3D ( 'NONE', #19, #24, #892 ) ;
#411 = DIRECTION ( 'NONE',  ( -0.000000000000000000, -0.000000000000000000, -1.000000000000000000 ) ) ;
#412 = VERTEX_POINT ( 'NONE', #1035 ) ;
#413 = PRESENTATION_STYLE_ASSIGNMENT (( #753 ) ) ;
#414 = EDGE_LOOP ( 'NONE', ( #955, #263, #406, #748 ) ) ;
#415 = FACE_OUTER_BOUND ( 'NONE', #109, .T. ) ;
#416 = CARTESIAN_POINT ( 'NONE',  ( 0.05399999999999999939, 0.03356763320286636904, 0.002500000000000004823 ) ) ;
#417 = EDGE_CURVE ( 'NONE', #614, #730, #1040, .T. ) ;
#418 = APPLICATION_CONTEXT ( 'automotive_design' ) ;
#419 = CARTESIAN_POINT ( 'NONE',  ( 0.009564697592065324327, 0.03508714497226483875, 0.002332001724094079614 ) ) ;
#420 = CIRCLE ( 'NONE', #557, 0.009000000000000001055 ) ;
#421 = LINE ( 'NONE', #625, #456 ) ;
#422 = ORIENTED_EDGE ( 'NONE', *, *, #823, .T. ) ;
#423 = DIRECTION ( 'NONE',  ( 0.000000000000000000, 0.000000000000000000, 1.000000000000000000 ) ) ;
#424 = CARTESIAN_POINT ( 'NONE',  ( 0.009631047461727949496, 0.03516397959386328986, 0.02871690528830354514 ) ) ;
#425 = DIRECTION ( 'NONE',  ( -0.000000000000000000, -0.000000000000000000, -1.000000000000000000 ) ) ;
#426 = EDGE_CURVE ( 'NONE', #914, #5, #1118, .T. ) ;
#427 = DIRECTION ( 'NONE',  ( 0.000000000000000000, 1.000000000000000000, 0.000000000000000000 ) ) ;
#428 = VERTEX_POINT ( 'NONE', #237 ) ;
#429 = DIRECTION ( 'NONE',  ( -0.000000000000000000, -0.000000000000000000, -1.000000000000000000 ) ) ;
#430 = VECTOR ( 'NONE', #993, 39.37007874015748143 ) ;
#431 = LINE ( 'NONE', #779, #148 ) ;
#432 = CARTESIAN_POINT ( 'NONE',  ( 0.05400000000000000633, 0.000000000000000000, 0.001500000000000000682 ) ) ;
#433 = ADVANCED_FACE ( 'NONE', ( #711 ), #856, .T. ) ;
#434 = ORIENTED_EDGE ( 'NONE', *, *, #233, .F. ) ;
#435 = CARTESIAN_POINT ( 'NONE',  ( 0.06300000000000000044, 0.000000000000000000, 0.02850000000000000103 ) ) ;
#436 = LINE ( 'NONE', #784, #932 ) ;
#437 = CARTESIAN_POINT ( 'NONE',  ( 0.05149999999999999717, 0.01149999999999999981, 0.002500000000000003088 ) ) ;
#438 = AXIS2_PLACEMENT_3D ( 'NONE', #1079, #992, #271 ) ;
#439 = AXIS2_PLACEMENT_3D ( 'NONE', #790, #1145, #969 ) ;
#440 = ORIENTED_EDGE ( 'NONE', *, *, #1073, .F. ) ;
#441 = CARTESIAN_POINT ( 'NONE',  ( 0.06300000000000000044, 0.03599999999999999728, 0.03099999999999999978 ) ) ;
#442 = CARTESIAN_POINT ( 'NONE',  ( 0.009000000000000001055, 0.000000000000000000, 0.02850000000000000103 ) ) ;
#443 = CARTESIAN_POINT ( 'NONE',  ( 0.01149999999999999981, 0.01149999999999999634, 0.002499999999999998751 ) ) ;
#444 = ORIENTED_EDGE ( 'NONE', *, *, #570, .F. ) ;
#445 = CARTESIAN_POINT ( 'NONE',  ( 0.05399999999999999939, 0.000000000000000000, 0.002499999999999998751 ) ) ;
#446 = CARTESIAN_POINT ( 'NONE',  ( 0.009813375581790162103, 0.03534628507533647129, 0.02891187730632258784 ) ) ;
#447 = EDGE_CURVE ( 'NONE', #357, #854, #601, .T. ) ;
#448 = EDGE_CURVE ( 'NONE', #865, #270, #866, .T. ) ;
#449 = FACE_OUTER_BOUND ( 'NONE', #104, .T. ) ;
#450 = DIRECTION ( 'NONE',  ( 0.000000000000000000, -1.000000000000000000, 0.000000000000000000 ) ) ;
#451 = VECTOR ( 'NONE', #301, 39.37007874015748143 ) ;
#452 = VERTEX_POINT ( 'NONE', #162 ) ;
#453 = DIRECTION ( 'NONE',  ( 1.000000000000000000, 0.000000000000000000, 0.000000000000000000 ) ) ;
#454 = CARTESIAN_POINT ( 'NONE',  ( 0.05385951772447484381, 0.03432624216056131411, 0.02850991680639285153 ) ) ;
#455 = FACE_OUTER_BOUND ( 'NONE', #994, .T. ) ;
#456 = VECTOR ( 'NONE', #172, 39.37007874015748143 ) ;
#457 = CARTESIAN_POINT ( 'NONE',  ( 0.000000000000000000, 0.000000000000000000, 0.03099999999999999978 ) ) ;
#458 = FACE_OUTER_BOUND ( 'NONE', #1007, .T. ) ;
#459 = ORIENTED_EDGE ( 'NONE', *, *, #197, .F. ) ;
#460 = DIRECTION ( 'NONE',  ( 2.134256245050206194E-16, 0.000000000000000000, 1.000000000000000000 ) ) ;
#461 = CARTESIAN_POINT ( 'NONE',  ( 0.05322612331749327491, 0.03530996548346163749, 0.02885906483865239430 ) ) ;
#462 = VECTOR ( 'NONE', #1036, 39.37007874015748143 ) ;
#463 = DIRECTION ( 'NONE',  ( -0.000000000000000000, 0.000000000000000000, -1.000000000000000000 ) ) ;
#464 = ADVANCED_FACE ( 'NONE', ( #529 ), #1132, .F. ) ;
#465 = ORIENTED_EDGE ( 'NONE', *, *, #1059, .T. ) ;
#466 = LINE ( 'NONE', #146, #381 ) ;
#467 = LINE ( 'NONE', #729, #923 ) ;
#468 = ORIENTED_EDGE ( 'NONE', *, *, #852, .T. ) ;
#469 = CARTESIAN_POINT ( 'NONE',  ( 0.03300000000000000155, 0.000000000000000000, 0.02850000000000000103 ) ) ;
#470 = VECTOR ( 'NONE', #970, 39.37007874015748143 ) ;
#471 = VERTEX_POINT ( 'NONE', #1044 ) ;
#472 = CARTESIAN_POINT ( 'NONE',  ( 0.000000000000000000, 0.000000000000000000, 0.03099999999999999978 ) ) ;
#473 = EDGE_CURVE ( 'NONE', #1001, #44, #75, .T. ) ;
#474 = EDGE_LOOP ( 'NONE', ( #318, #504, #1147, #241, #938, #149, #889, #194 ) ) ;
#475 = ORIENTED_EDGE ( 'NONE', *, *, #946, .F. ) ;
#476 = CARTESIAN_POINT ( 'NONE',  ( 0.05300000000000000544, 0.04499999999999999833, 0.03099999999999999978 ) ) ;
#477 = ORIENTED_EDGE ( 'NONE', *, *, #974, .T. ) ;
#478 = AXIS2_PLACEMENT_3D ( 'NONE', #1141, #1055, #349 ) ;
#479 = EDGE_LOOP ( 'NONE', ( #731, #55, #907, #285 ) ) ;
#480 = ORIENTED_EDGE ( 'NONE', *, *, #823, .F. ) ;
#481 = EDGE_CURVE ( 'NONE', #877, #782, #788, .T. ) ;
#482 = CARTESIAN_POINT ( 'NONE',  ( 0.06300000000000000044, 0.009000000000000001055, 0.02850000000000000103 ) ) ;
#483 = LENGTH_MEASURE_WITH_UNIT ( LENGTH_MEASURE( 0.02539999999999999897 ), #136 );
#484 = VECTOR ( 'NONE', #995, 39.37007874015748143 ) ;
#485 = VERTEX_POINT ( 'NONE', #58 ) ;
#486 = DIRECTION ( 'NONE',  ( 1.000000000000000000, 0.000000000000000000, -0.000000000000000000 ) ) ;
#487 = AXIS2_PLACEMENT_3D ( 'NONE', #437, #881, #532 ) ;
#488 = CARTESIAN_POINT ( 'NONE',  ( 0.05379998765019389229, 0.03447982488688314945, 0.002479793376138580887 ) ) ;
#489 = CARTESIAN_POINT ( 'NONE',  ( 0.009645226216145694892, 0.03517625004421380541, 0.002263991577177608145 ) ) ;
#490 = ORIENTED_EDGE ( 'NONE', *, *, #937, .T. ) ;
#491 = ORIENTED_EDGE ( 'NONE', *, *, #552, .T. ) ;
#492 = CARTESIAN_POINT ( 'NONE',  ( 0.06300000000000000044, 0.000000000000000000, 0.03099999999999999978 ) ) ;
#493 = VECTOR ( 'NONE', #612, 39.37007874015748143 ) ;
#494 = DIRECTION ( 'NONE',  ( 1.000000000000000000, 0.000000000000000000, -0.000000000000000000 ) ) ;
#495 = ADVANCED_FACE ( 'NONE', ( #144 ), #623, .F. ) ;
#496 = CARTESIAN_POINT ( 'NONE',  ( 0.05149999999999999717, 0.01149999999999999981, 0.03099999999999999978 ) ) ;
#497 = EDGE_CURVE ( 'NONE', #832, #741, #878, .T. ) ;
#498 = EDGE_LOOP ( 'NONE', ( #609, #1101, #960, #459 ) ) ;
#499 = CARTESIAN_POINT ( 'NONE',  ( 0.06300000000000000044, 0.03599999999999999728, 0.02850000000000000103 ) ) ;
#500 = LINE ( 'NONE', #851, #1047 ) ;
#501 = CARTESIAN_POINT ( 'NONE',  ( 0.009300483949286654506, 0.03470471357063344142, 0.002461173782807526793 ) ) ;
#502 = CARTESIAN_POINT ( 'NONE',  ( 0.05400000000000000633, 0.03550000000000032990, 0.02850000000000000103 ) ) ;
#503 = FILL_AREA_STYLE_COLOUR ( '', #726 ) ;
#504 = ORIENTED_EDGE ( 'NONE', *, *, #47, .F. ) ;
#505 = LINE ( 'NONE', #1091, #451 ) ;
#506 = CARTESIAN_POINT ( 'NONE',  ( 0.009000000000000001055, 0.000000000000000000, 0.002500000000000000919 ) ) ;
#507 = EDGE_CURVE ( 'NONE', #741, #865, #765, .T. ) ;
#508 = VECTOR ( 'NONE', #915, 39.37007874015748143 ) ;
#509 = DIRECTION ( 'NONE',  ( 0.000000000000000000, 0.000000000000000000, -1.000000000000000000 ) ) ;
#510 = VERTEX_POINT ( 'NONE', #610 ) ;
#511 = VERTEX_POINT ( 'NONE', #83 ) ;
#512 = CARTESIAN_POINT ( 'NONE',  ( 0.009000000000000001055, 0.03550000000000032990, 0.002500000000000000919 ) ) ;
#513 = CYLINDRICAL_SURFACE ( 'NONE', #360, 0.009000000000000001055 ) ;
#514 = VECTOR ( 'NONE', #834, 39.37007874015748143 ) ;
#515 = DIRECTION ( 'NONE',  ( -1.000000000000000000, -7.114187483500684848E-17, 0.000000000000000000 ) ) ;
#516 = VERTEX_POINT ( 'NONE', #536 ) ;
#517 = FACE_OUTER_BOUND ( 'NONE', #871, .T. ) ;
#518 = PLANE ( 'NONE',  #130 ) ;
#519 = EDGE_CURVE ( 'NONE', #382, #911, #950, .T. ) ;
#520 = DIRECTION ( 'NONE',  ( 0.000000000000000000, -0.000000000000000000, 1.000000000000000000 ) ) ;
#521 = ORIENTED_EDGE ( 'NONE', *, *, #534, .F. ) ;
#522 = CARTESIAN_POINT ( 'NONE',  ( 0.05300000000000000544, 0.000000000000000000, 0.000000000000000000 ) ) ;
#523 = CARTESIAN_POINT ( 'NONE',  ( 0.009029876320053102992, 0.03396874055711460866, 0.02850021210128163285 ) ) ;
#524 =( GEOMETRIC_REPRESENTATION_CONTEXT ( 3 ) GLOBAL_UNCERTAINTY_ASSIGNED_CONTEXT ( ( #1002 ) ) GLOBAL_UNIT_ASSIGNED_CONTEXT ( ( #119, #831, #661 ) ) REPRESENTATION_CONTEXT ( 'NONE', 'WORKASPACE' ) );
#525 = DIRECTION ( 'NONE',  ( 1.000000000000000000, 2.371395827833562438E-17, 0.000000000000000000 ) ) ;
#526 = VECTOR ( 'NONE', #158, 39.37007874015748143 ) ;
#527 = CARTESIAN_POINT ( 'NONE',  ( 3.061616997868383461E-19, 0.03599999999999999728, 0.002500000000000000919 ) ) ;
#528 = ORIENTED_EDGE ( 'NONE', *, *, #676, .T. ) ;
#529 = FACE_OUTER_BOUND ( 'NONE', #558, .T. ) ;
#530 = DIRECTION ( 'NONE',  ( 1.000000000000000000, 0.000000000000000000, -2.371395827833561452E-16 ) ) ;
#531 = DIRECTION ( 'NONE',  ( -0.000000000000000000, 0.000000000000000000, 1.000000000000000000 ) ) ;
#532 = DIRECTION ( 'NONE',  ( 1.000000000000000000, 0.000000000000000000, -2.134256245050206687E-16 ) ) ;
#533 = AXIS2_PLACEMENT_3D ( 'NONE', #807, #732, #453 ) ;
#534 = EDGE_CURVE ( 'NONE', #832, #152, #266, .T. ) ;
#535 = ORIENTED_EDGE ( 'NONE', *, *, #47, .T. ) ;
#536 = CARTESIAN_POINT ( 'NONE',  ( 0.02999999999999999889, 0.000000000000000000, 0.02850000000000000103 ) ) ;
#537 = ADVANCED_FACE ( 'NONE', ( #283 ), #1072, .F. ) ;
#538 = CARTESIAN_POINT ( 'NONE',  ( 0.01000000000000000021, 0.03550000000000032990, 0.02949999999999999845 ) ) ;
#539 = DIRECTION ( 'NONE',  ( 1.000000000000000000, 0.000000000000000000, -0.000000000000000000 ) ) ;
#540 = CARTESIAN_POINT ( 'NONE',  ( 0.05300000000000000544, 0.04499999999999999833, 0.02949999999999999845 ) ) ;
#541 = VERTEX_POINT ( 'NONE', #542 ) ;
#542 = CARTESIAN_POINT ( 'NONE',  ( 0.009000000000000001055, 0.01149999999999999634, 0.02850000000000000103 ) ) ;
#543 = DIRECTION ( 'NONE',  ( -8.537024980200820240E-15, 0.000000000000000000, 1.000000000000000000 ) ) ;
#544 = LINE ( 'NONE', #91, #16 ) ;
#545 = COLOUR_RGB ( '',0.7921568627450980005, 0.8196078431372548767, 0.9333333333333333481 ) ;
#546 = PRESENTATION_LAYER_ASSIGNMENT (  '', '', ( #221 ) ) ;
#547 = PLANE ( 'NONE',  #1098 ) ;
#548 = ORIENTED_EDGE ( 'NONE', *, *, #417, .T. ) ;
#549 = CARTESIAN_POINT ( 'NONE',  ( 0.01149999999999999981, 0.03349999999999999506, 0.000000000000000000 ) ) ;
#550 = CARTESIAN_POINT ( 'NONE',  ( 4.739000847409537175E-34, 0.03599999999999999728, 0.02850000000000000103 ) ) ;
#551 = DIRECTION ( 'NONE',  ( -3.201384367575308576E-15, 0.000000000000000000, 1.000000000000000000 ) ) ;
#552 = EDGE_CURVE ( 'NONE', #270, #832, #216, .T. ) ;
#553 = PRODUCT_DEFINITION_SHAPE ( 'NONE', 'NONE',  #190 ) ;
#554 = ORIENTED_EDGE ( 'NONE', *, *, #781, .T. ) ;
#555 = CARTESIAN_POINT ( 'NONE',  ( 0.009000000000000001055, 0.03599999999999999728, 0.02850000000000000103 ) ) ;
#556 = FACE_OUTER_BOUND ( 'NONE', #336, .T. ) ;
#557 = AXIS2_PLACEMENT_3D ( 'NONE', #555, #897, #100 ) ;
#558 = EDGE_LOOP ( 'NONE', ( #966, #39, #622, #554, #703, #475, #480, #106, #17 ) ) ;
#559 = ADVANCED_FACE ( 'NONE', ( #375 ), #903, .T. ) ;
#560 = VERTEX_POINT ( 'NONE', #644 ) ;
#561 = DIRECTION ( 'NONE',  ( -0.000000000000000000, 0.000000000000000000, 1.000000000000000000 ) ) ;
#562 = CARTESIAN_POINT ( 'NONE',  ( 0.05317108029228567040, 0.03535943288578384525, 0.02894063239442850113 ) ) ;
#563 = ORIENTED_EDGE ( 'NONE', *, *, #768, .T. ) ;
#564 = CYLINDRICAL_SURFACE ( 'NONE', #982, 0.0009999999999999987198 ) ;
#565 = MECHANICAL_DESIGN_GEOMETRIC_PRESENTATION_REPRESENTATION (  '', ( #221 ), #524 ) ;
#566 = ORIENTED_EDGE ( 'NONE', *, *, #85, .F. ) ;
#567 = CARTESIAN_POINT ( 'NONE',  ( 0.05300000000000000544, 0.03550000000000032990, 0.02949999999999999845 ) ) ;
#568 = EDGE_LOOP ( 'NONE', ( #251, #787, #219, #298 ) ) ;
#569 = ORIENTED_EDGE ( 'NONE', *, *, #392, .T. ) ;
#570 = EDGE_CURVE ( 'NONE', #655, #10, #105, .T. ) ;
#571 = ORIENTED_EDGE ( 'NONE', *, *, #642, .F. ) ;
#572 = LINE ( 'NONE', #52, #141 ) ;
#573 = EDGE_CURVE ( 'NONE', #516, #1034, #811, .T. ) ;
#574 = VECTOR ( 'NONE', #586, 39.37007874015748143 ) ;
#575 =( LENGTH_UNIT ( ) NAMED_UNIT ( * ) SI_UNIT ( $, .METRE. ) );
#576 = APPLICATION_PROTOCOL_DEFINITION ( 'draft international standard', 'automotive_design', 1998, #418 ) ;
#577 = VERTEX_POINT ( 'NONE', #793 ) ;
#578 = CARTESIAN_POINT ( 'NONE',  ( 0.01149999999999999981, 0.01149999999999999634, 0.02850000000000000103 ) ) ;
#579 = DIRECTION ( 'NONE',  ( 0.000000000000000000, -1.000000000000000000, 0.000000000000000000 ) ) ;
#580 =( NAMED_UNIT ( * ) SI_UNIT ( $, .STERADIAN. ) SOLID_ANGLE_UNIT ( ) );
#581 = AXIS2_PLACEMENT_3D ( 'NONE', #15, #373, #286 ) ;
#582 = ORIENTED_EDGE ( 'NONE', *, *, #335, .F. ) ;
#583 = DIRECTION ( 'NONE',  ( 0.000000000000000000, -0.000000000000000000, 1.000000000000000000 ) ) ;
#584 = CARTESIAN_POINT ( 'NONE',  ( 0.05390425552032680756, 0.03423507215930080005, 0.002501078335010983693 ) ) ;
#585 = ADVANCED_FACE ( 'NONE', ( #1148 ), #883, .F. ) ;
#586 = DIRECTION ( 'NONE',  ( -0.000000000000000000, 1.000000000000000000, -0.000000000000000000 ) ) ;
#587 = LINE ( 'NONE', #502, #218 ) ;
#588 = ORIENTED_EDGE ( 'NONE', *, *, #974, .F. ) ;
#589 = DIRECTION ( 'NONE',  ( 1.000000000000000000, 0.000000000000000000, 0.000000000000000000 ) ) ;
#590 = DIRECTION ( 'NONE',  ( 0.000000000000000000, 1.000000000000000000, -0.000000000000000000 ) ) ;
#591 = AXIS2_PLACEMENT_3D ( 'NONE', #435, #872, #259 ) ;
#592 = VECTOR ( 'NONE', #261, 39.37007874015748143 ) ;
#593 = CARTESIAN_POINT ( 'NONE',  ( 0.009986423297478100661, 0.03549000016509434863, 0.001687827694337378425 ) ) ;
#594 = EDGE_CURVE ( 'NONE', #10, #206, #89, .T. ) ;
#595 = ORIENTED_EDGE ( 'NONE', *, *, #812, .T. ) ;
#596 = CARTESIAN_POINT ( 'NONE',  ( 0.05300000000000000544, 0.04499999999999999833, 1.224646799147353384E-18 ) ) ;
#597 = CARTESIAN_POINT ( 'NONE',  ( 0.05314220592213062672, 0.03538498268143744352, 0.002013993501877423247 ) ) ;
#598 = CARTESIAN_POINT ( 'NONE',  ( 0.009000000000000001055, 2.134256245050206121E-19, 0.03099999999999999978 ) ) ;
#599 = VERTEX_POINT ( 'NONE', #264 ) ;
#600 = VERTEX_POINT ( 'NONE', #1086 ) ;
#601 = LINE ( 'NONE', #441, #1028 ) ;
#602 = CARTESIAN_POINT ( 'NONE',  ( 0.01000000000000000021, 0.03550000000000032990, 0.001500000000000001115 ) ) ;
#603 = CARTESIAN_POINT ( 'NONE',  ( 0.02999999999999999889, 0.000000000000000000, 0.002499999999999998751 ) ) ;
#604 = ORIENTED_EDGE ( 'NONE', *, *, #448, .F. ) ;
#605 = EDGE_CURVE ( 'NONE', #648, #911, #798, .T. ) ;
#606 = CARTESIAN_POINT ( 'NONE',  ( 0.009000000000000001055, 0.03377938617652011949, 0.002500000000000000919 ) ) ;
#607 = AXIS2_PLACEMENT_3D ( 'NONE', #358, #649, #174 ) ;
#608 = DIRECTION ( 'NONE',  ( -0.000000000000000000, -0.000000000000000000, -1.000000000000000000 ) ) ;
#609 = ORIENTED_EDGE ( 'NONE', *, *, #1082, .F. ) ;
#610 = CARTESIAN_POINT ( 'NONE',  ( 0.05300000000000000544, 0.04499999999999999833, 0.001500000000000000682 ) ) ;
#611 = CARTESIAN_POINT ( 'NONE',  ( 0.009200012349806122036, 0.03447982488688318414, 0.02852020662386142019 ) ) ;
#612 = DIRECTION ( 'NONE',  ( 0.000000000000000000, -0.000000000000000000, 1.000000000000000000 ) ) ;
#613 = CARTESIAN_POINT ( 'NONE',  ( 0.05149999999999999717, 0.03349999999999999506, 0.03099999999999999978 ) ) ;
#614 = VERTEX_POINT ( 'NONE', #639 ) ;
#615 = CARTESIAN_POINT ( 'NONE',  ( 0.000000000000000000, 0.008999999999999997585, 0.03099999999999999978 ) ) ;
#616 = AXIS2_PLACEMENT_3D ( 'NONE', #72, #334, #959 ) ;
#617 = CARTESIAN_POINT ( 'NONE',  ( 0.009000000000000001055, 0.03349999999999999506, 0.02850000000000000103 ) ) ;
#618 = CARTESIAN_POINT ( 'NONE',  ( 0.05149999999999999717, 0.008999999999999999320, 0.002499999999999998751 ) ) ;
#619 = EDGE_CURVE ( 'NONE', #342, #614, #341, .T. ) ;
#620 = ADVANCED_FACE ( 'NONE', ( #890 ), #11, .F. ) ;
#621 = LINE ( 'NONE', #786, #470 ) ;
#622 = ORIENTED_EDGE ( 'NONE', *, *, #222, .F. ) ;
#623 = PLANE ( 'NONE',  #478 ) ;
#624 = FACE_OUTER_BOUND ( 'NONE', #568, .T. ) ;
#625 = CARTESIAN_POINT ( 'NONE',  ( 0.05300000000000000544, 0.03550000000000032990, 0.001500000000000000682 ) ) ;
#626 = VECTOR ( 'NONE', #693, 39.37007874015748143 ) ;
#627 = EDGE_CURVE ( 'NONE', #658, #814, #785, .T. ) ;
#628 = EDGE_LOOP ( 'NONE', ( #632, #74, #477, #949 ) ) ;
#629 = CARTESIAN_POINT ( 'NONE',  ( 0.01000000000000000021, 0.000000000000000000, 0.02850000000000000103 ) ) ;
#630 = CARTESIAN_POINT ( 'NONE',  ( 0.009986708552908072148, 0.03549020710934114309, 0.02931410801847813066 ) ) ;
#631 = CARTESIAN_POINT ( 'NONE',  ( 0.03300000000000000155, 0.000000000000000000, 0.03099999999999999978 ) ) ;
#632 = ORIENTED_EDGE ( 'NONE', *, *, #473, .F. ) ;
#633 = CARTESIAN_POINT ( 'NONE',  ( 0.05300000000000000544, 0.03550000000000032990, 0.002500000000000000919 ) ) ;
#634 = ADVANCED_FACE ( 'NONE', ( #95 ), #979, .F. ) ;
#635 = DIRECTION ( 'NONE',  ( -1.000000000000000000, 0.000000000000000000, -0.000000000000000000 ) ) ;
#636 = PRESENTATION_LAYER_ASSIGNMENT (  '', '', ( #29 ) ) ;
#637 = VECTOR ( 'NONE', #383, 39.37007874015748143 ) ;
#638 = ORIENTED_EDGE ( 'NONE', *, *, #1093, .F. ) ;
#639 = CARTESIAN_POINT ( 'NONE',  ( 0.05399999999999999939, 0.04499999999999999833, 0.02850000000000000103 ) ) ;
#640 = ORIENTED_EDGE ( 'NONE', *, *, #355, .F. ) ;
#641 = CARTESIAN_POINT ( 'NONE',  ( 0.02999999999999999889, 0.000000000000000000, 0.02850000000000000103 ) ) ;
#642 = EDGE_CURVE ( 'NONE', #910, #1034, #6, .T. ) ;
#643 = EDGE_LOOP ( 'NONE', ( #422, #317, #761, #201 ) ) ;
#644 = CARTESIAN_POINT ( 'NONE',  ( 0.000000000000000000, 0.008999999999999997585, 0.002499999999999998751 ) ) ;
#645 = CARTESIAN_POINT ( 'NONE',  ( 0.009000000000000001055, 0.000000000000000000, 0.002499999999999998751 ) ) ;
#646 = AXIS2_PLACEMENT_3D ( 'NONE', #179, #460, #368 ) ;
#647 = FACE_OUTER_BOUND ( 'NONE', #498, .T. ) ;
#648 = VERTEX_POINT ( 'NONE', #186 ) ;
#649 = DIRECTION ( 'NONE',  ( -0.000000000000000000, -1.000000000000000000, -0.000000000000000000 ) ) ;
#650 = LINE ( 'NONE', #90, #257 ) ;
#651 = ORIENTED_EDGE ( 'NONE', *, *, #835, .T. ) ;
#652 = CARTESIAN_POINT ( 'NONE',  ( 0.009000000000000001055, 0.04499999999999999833, 0.001500000000000001115 ) ) ;
#653 = EDGE_CURVE ( 'NONE', #832, #1104, #420, .T. ) ;
#654 = EDGE_CURVE ( 'NONE', #782, #412, #466, .T. ) ;
#655 = VERTEX_POINT ( 'NONE', #140 ) ;
#656 = CIRCLE ( 'NONE', #942, 0.009000000000000001055 ) ;
#657 = CARTESIAN_POINT ( 'NONE',  ( 0.05299999999999999850, 0.03549999999999999684, 0.02940675467318734984 ) ) ;
#658 = VERTEX_POINT ( 'NONE', #769 ) ;
#659 = LINE ( 'NONE', #749, #508 ) ;
#660 = CARTESIAN_POINT ( 'NONE',  ( 0.01000000000000000021, 0.000000000000000000, 0.000000000000000000 ) ) ;
#661 =( NAMED_UNIT ( * ) SI_UNIT ( $, .STERADIAN. ) SOLID_ANGLE_UNIT ( ) );
#662 = DIRECTION ( 'NONE',  ( -0.000000000000000000, 0.000000000000000000, 1.000000000000000000 ) ) ;
#663 = CARTESIAN_POINT ( 'NONE',  ( 0.05309896301347877962, 0.03542265611015248117, 0.001941826225801147974 ) ) ;
#664 = AXIS2_PLACEMENT_3D ( 'NONE', #1103, #494, #1121 ) ;
#665 = ORIENTED_EDGE ( 'NONE', *, *, #481, .F. ) ;
#666 = LENGTH_MEASURE_WITH_UNIT ( LENGTH_MEASURE( 0.02539999999999999897 ), #1006 );
#667 = ORIENTED_EDGE ( 'NONE', *, *, #497, .F. ) ;
#668 = ADVANCED_FACE ( 'NONE', ( #947 ), #404, .F. ) ;
#669 = CYLINDRICAL_SURFACE ( 'NONE', #209, 0.0009999999999999987198 ) ;
#670 = CIRCLE ( 'NONE', #310, 0.002499999999999998751 ) ;
#671 = CARTESIAN_POINT ( 'NONE',  ( 0.05399999999999999939, 0.01149999999999999981, 0.002499999999999998751 ) ) ;
#672 = VECTOR ( 'NONE', #180, 39.37007874015748143 ) ;
#673 = APPLICATION_CONTEXT ( 'automotive_design' ) ;
#674 = ORIENTED_EDGE ( 'NONE', *, *, #627, .F. ) ;
#675 = AXIS2_PLACEMENT_3D ( 'NONE', #329, #860, #350 ) ;
#676 = EDGE_CURVE ( 'NONE', #560, #236, #328, .T. ) ;
#677 = CARTESIAN_POINT ( 'NONE',  ( 0.009048247378989637130, 0.03406284495865286033, 0.002503170344496891825 ) ) ;
#678 = CARTESIAN_POINT ( 'NONE',  ( 0.000000000000000000, 0.000000000000000000, 0.03099999999999999978 ) ) ;
#679 = FILL_AREA_STYLE ('',( #1110 ) ) ;
#680 = CARTESIAN_POINT ( 'NONE',  ( 0.000000000000000000, 0.04499999999999999833, 0.03099999999999999978 ) ) ;
#681 = VERTEX_POINT ( 'NONE', #853 ) ;
#682 = DIRECTION ( 'NONE',  ( 0.000000000000000000, 0.000000000000000000, 1.000000000000000000 ) ) ;
#683 = DIRECTION ( 'NONE',  ( 0.000000000000000000, 1.000000000000000000, 0.000000000000000000 ) ) ;
#684 = VECTOR ( 'NONE', #1153, 39.37007874015748143 ) ;
#685 = CARTESIAN_POINT ( 'NONE',  ( 0.009000000000000001055, 0.04499999999999999833, 0.002500000000000000919 ) ) ;
#686 = ORIENTED_EDGE ( 'NONE', *, *, #1106, .F. ) ;
#687 = LINE ( 'NONE', #41, #462 ) ;
#688 = UNCERTAINTY_MEASURE_WITH_UNIT (LENGTH_MEASURE( 1.000000000000000082E-05 ), #1095, 'distance_accuracy_value', 'NONE');
#689 = LINE ( 'NONE', #598, #189 ) ;
#690 = CARTESIAN_POINT ( 'NONE',  ( 0.06300000000000000044, 0.000000000000000000, 0.002499999999999998751 ) ) ;
#691 = EDGE_CURVE ( 'NONE', #861, #792, #1084, .T. ) ;
#692 = ORIENTED_EDGE ( 'NONE', *, *, #768, .F. ) ;
#693 = DIRECTION ( 'NONE',  ( -0.000000000000000000, -0.000000000000000000, 1.000000000000000000 ) ) ;
#694 = MECHANICAL_DESIGN_GEOMETRIC_PRESENTATION_REPRESENTATION (  '', ( #29 ), #366 ) ;
#695 = DIRECTION ( 'NONE',  ( -1.000000000000000000, 0.000000000000000000, 0.000000000000000000 ) ) ;
#696 = DIRECTION ( 'NONE',  ( 0.000000000000000000, 1.000000000000000000, 0.000000000000000000 ) ) ;
#697 = ORIENTED_EDGE ( 'NONE', *, *, #519, .T. ) ;
#698 = DIRECTION ( 'NONE',  ( -0.000000000000000000, -0.000000000000000000, -1.000000000000000000 ) ) ;
#699 = DIRECTION ( 'NONE',  ( 1.000000000000000000, 7.114187483500684848E-17, 0.000000000000000000 ) ) ;
#700 = CARTESIAN_POINT ( 'NONE',  ( 0.01000000000000000021, 0.03550000000000032990, 0.001500000000000001115 ) ) ;
#701 = VECTOR ( 'NONE', #683, 39.37007874015748143 ) ;
#702 = PLANE ( 'NONE',  #616 ) ;
#703 = ORIENTED_EDGE ( 'NONE', *, *, #1059, .F. ) ;
#704 = CARTESIAN_POINT ( 'NONE',  ( 0.05399999999999999939, 0.04499999999999999833, 0.03099999999999999978 ) ) ;
#705 = CARTESIAN_POINT ( 'NONE',  ( 0.009002749072542439931, 0.03363532203591037412, 0.02849998873744867545 ) ) ;
#706 = EDGE_CURVE ( 'NONE', #541, #348, #316, .T. ) ;
#707 = EDGE_CURVE ( 'NONE', #861, #910, #689, .T. ) ;
#708 = CARTESIAN_POINT ( 'NONE',  ( 0.009000000000000001055, 0.04499999999999999833, 0.02850000000000000103 ) ) ;
#709 = CARTESIAN_POINT ( 'NONE',  ( 0.000000000000000000, 0.04499999999999999833, 0.03099999999999999978 ) ) ;
#710 = ORIENTED_EDGE ( 'NONE', *, *, #920, .T. ) ;
#711 = FACE_OUTER_BOUND ( 'NONE', #414, .T. ) ;
#712 = CARTESIAN_POINT ( 'NONE',  ( 0.009901036986521227767, 0.03542265611015248811, 0.02905817377419884703 ) ) ;
#713 = ADVANCED_FACE ( 'NONE', ( #232 ), #669, .F. ) ;
#714 = CARTESIAN_POINT ( 'NONE',  ( 0.01149999999999999981, 0.03349999999999999506, 0.03099999999999999978 ) ) ;
#715 = ORIENTED_EDGE ( 'NONE', *, *, #594, .F. ) ;
#716 = DIRECTION ( 'NONE',  ( 0.000000000000000000, 1.000000000000000000, 0.000000000000000000 ) ) ;
#717 = DIRECTION ( 'NONE',  ( 1.000000000000000000, -6.829619984160661399E-15, 0.000000000000000000 ) ) ;
#718 = DIRECTION ( 'NONE',  ( -0.000000000000000000, 0.000000000000000000, -1.000000000000000000 ) ) ;
#719 = ORIENTED_EDGE ( 'NONE', *, *, #835, .F. ) ;
#720 = DIRECTION ( 'NONE',  ( -1.000000000000000000, 0.000000000000000000, 0.000000000000000000 ) ) ;
#721 = CARTESIAN_POINT ( 'NONE',  ( 0.05335477378385430902, 0.03517625004421380541, 0.02873600842282239554 ) ) ;
#722 = VERTEX_POINT ( 'NONE', #602 ) ;
#723 = DIRECTION ( 'NONE',  ( 1.000000000000000000, 0.000000000000000000, 0.000000000000000000 ) ) ;
#724 = ADVANCED_FACE ( 'NONE', ( #1109 ), #513, .T. ) ;
#725 = LINE ( 'NONE', #641, #69 ) ;
#726 = COLOUR_RGB ( '',0.7921568627450980005, 0.8196078431372548767, 0.9333333333333333481 ) ;
#727 = ORIENTED_EDGE ( 'NONE', *, *, #145, .T. ) ;
#728 = DIRECTION ( 'NONE',  ( 0.000000000000000000, 0.000000000000000000, 1.000000000000000000 ) ) ;
#729 = CARTESIAN_POINT ( 'NONE',  ( 0.05300000000000000544, 0.000000000000000000, 0.03099999999999999978 ) ) ;
#730 = VERTEX_POINT ( 'NONE', #322 ) ;
#731 = ORIENTED_EDGE ( 'NONE', *, *, #756, .F. ) ;
#732 = DIRECTION ( 'NONE',  ( -0.000000000000000000, 0.000000000000000000, 1.000000000000000000 ) ) ;
#733 = AXIS2_PLACEMENT_3D ( 'NONE', #472, #561, #192 ) ;
#734 = AXIS2_PLACEMENT_3D ( 'NONE', #457, #156, #525 ) ;
#735 = ORIENTED_EDGE ( 'NONE', *, *, #971, .T. ) ;
#736 = FACE_OUTER_BOUND ( 'NONE', #479, .T. ) ;
#737 = ADVANCED_FACE ( 'NONE', ( #751 ), #242, .T. ) ;
#738 = EDGE_CURVE ( 'NONE', #412, #599, #775, .T. ) ;
#739 = EDGE_LOOP ( 'NONE', ( #217, #1015, #1005, #116 ) ) ;
#740 = CARTESIAN_POINT ( 'NONE',  ( 0.05395175262101035984, 0.03406284495865286033, 0.02849682965550310795 ) ) ;
#741 = VERTEX_POINT ( 'NONE', #685 ) ;
#742 = ORIENTED_EDGE ( 'NONE', *, *, #345, .T. ) ;
#743 = FACE_OUTER_BOUND ( 'NONE', #474, .T. ) ;
#744 = CARTESIAN_POINT ( 'NONE',  ( 0.05318662441820984355, 0.03534628507533646435, 0.002088122693677409766 ) ) ;
#745 = AXIS2_PLACEMENT_3D ( 'NONE', #678, #138, #682 ) ;
#746 = EDGE_CURVE ( 'NONE', #326, #854, #1126, .T. ) ;
#747 = SURFACE_STYLE_FILL_AREA ( #679 ) ;
#748 = ORIENTED_EDGE ( 'NONE', *, *, #35, .T. ) ;
#749 = CARTESIAN_POINT ( 'NONE',  ( 0.000000000000000000, 0.03599999999999999728, 0.03099999999999999978 ) ) ;
#750 = LINE ( 'NONE', #313, #1100 ) ;
#751 = FACE_OUTER_BOUND ( 'NONE', #1123, .T. ) ;
#752 = SURFACE_SIDE_STYLE ('',( #747 ) ) ;
#753 = SURFACE_STYLE_USAGE ( .BOTH. , #131 ) ;
#754 = ORIENTED_EDGE ( 'NONE', *, *, #409, .F. ) ;
#755 = CARTESIAN_POINT ( 'NONE',  ( 0.05149999999999999717, 0.009000000000000001055, 0.02850000000000000103 ) ) ;
#756 = EDGE_CURVE ( 'NONE', #865, #722, #81, .T. ) ;
#757 = DIRECTION ( 'NONE',  ( 0.000000000000000000, -1.000000000000000000, 0.000000000000000000 ) ) ;
#758 = AXIS2_PLACEMENT_3D ( 'NONE', #443, #780, #1127 ) ;
#759 = CARTESIAN_POINT ( 'NONE',  ( 0.05300000000000000544, 0.04499999999999999833, 0.03099999999999999978 ) ) ;
#760 = CIRCLE ( 'NONE', #1128, 0.009000000000000001055 ) ;
#761 = ORIENTED_EDGE ( 'NONE', *, *, #235, .T. ) ;
#762 = DIRECTION ( 'NONE',  ( -0.000000000000000000, -0.000000000000000000, -1.000000000000000000 ) ) ;
#763 = DIRECTION ( 'NONE',  ( 1.000000000000000000, 2.371395827833562438E-17, 0.000000000000000000 ) ) ;
#764 = ORIENTED_EDGE ( 'NONE', *, *, #997, .T. ) ;
#765 = LINE ( 'NONE', #512, #767 ) ;
#766 = CIRCLE ( 'NONE', #952, 0.001000000000000000021 ) ;
#767 = VECTOR ( 'NONE', #1124, 39.37007874015748143 ) ;
#768 = EDGE_CURVE ( 'NONE', #428, #681, #290, .T. ) ;
#769 = CARTESIAN_POINT ( 'NONE',  ( 0.01149999999999999981, 0.03599999999999999728, 0.000000000000000000 ) ) ;
#770 = ADVANCED_FACE ( 'NONE', ( #624 ), #518, .F. ) ;
#771 = DIRECTION ( 'NONE',  ( -0.000000000000000000, -0.000000000000000000, 1.000000000000000000 ) ) ;
#772 = ORIENTED_EDGE ( 'NONE', *, *, #552, .F. ) ;
#773 = DIRECTION ( 'NONE',  ( -1.000000000000000000, 0.000000000000000000, 0.000000000000000000 ) ) ;
#774 = CARTESIAN_POINT ( 'NONE',  ( 0.009857794077869382401, 0.03538498268143745046, 0.02898600649812257263 ) ) ;
#775 = LINE ( 'NONE', #845, #514 ) ;
#776 = PLANE ( 'NONE',  #675 ) ;
#777 = ORIENTED_EDGE ( 'NONE', *, *, #392, .F. ) ;
#778 = AXIS2_PLACEMENT_3D ( 'NONE', #175, #111, #543 ) ;
#779 = CARTESIAN_POINT ( 'NONE',  ( 0.01000000000000000021, 0.04499999999999999833, 0.001500000000000001115 ) ) ;
#780 = DIRECTION ( 'NONE',  ( -0.000000000000000000, 0.000000000000000000, 1.000000000000000000 ) ) ;
#781 = EDGE_CURVE ( 'NONE', #206, #941, #1137, .T. ) ;
#782 = VERTEX_POINT ( 'NONE', #1048 ) ;
#783 = CARTESIAN_POINT ( 'NONE',  ( 0.009008233650004134757, 0.03370273247650112936, 0.02850003389707069304 ) ) ;
#784 = CARTESIAN_POINT ( 'NONE',  ( 0.06300000000000000044, 0.000000000000000000, 0.02850000000000000103 ) ) ;
#785 = CIRCLE ( 'NONE', #1010, 0.002499999999999998751 ) ;
#786 = CARTESIAN_POINT ( 'NONE',  ( 0.01000000000000000021, 0.04499999999999999833, 0.02850000000000000103 ) ) ;
#787 = ORIENTED_EDGE ( 'NONE', *, *, #594, .T. ) ;
#788 = LINE ( 'NONE', #944, #626 ) ;
#789 = EDGE_CURVE ( 'NONE', #658, #485, #66, .T. ) ;
#790 = CARTESIAN_POINT ( 'NONE',  ( 0.05399999999999999939, 0.009000000000000001055, 0.03099999999999999978 ) ) ;
#791 = CARTESIAN_POINT ( 'NONE',  ( 0.05399999999999999939, 0.01149999999999999981, 0.02850000000000000103 ) ) ;
#792 = VERTEX_POINT ( 'NONE', #887 ) ;
#793 = CARTESIAN_POINT ( 'NONE',  ( 0.05399999999999999939, 0.000000000000000000, 0.002500000000000000919 ) ) ;
#794 = VECTOR ( 'NONE', #319, 39.37007874015748143 ) ;
#795 = CARTESIAN_POINT ( 'NONE',  ( 0.009000000000000001055, 0.03349999999999999506, 0.002499999999999998751 ) ) ;
#796 = LINE ( 'NONE', #876, #526 ) ;
#797 = EDGE_LOOP ( 'NONE', ( #899, #1043, #1096, #384 ) ) ;
#798 = LINE ( 'NONE', #633, #170 ) ;
#799 = CARTESIAN_POINT ( 'NONE',  ( 0.05351751537078252435, 0.03498242951574070253, 0.02862040312460794114 ) ) ;
#800 = EDGE_CURVE ( 'NONE', #722, #305, #431, .T. ) ;
#801 = AXIS2_PLACEMENT_3D ( 'NONE', #164, #531, #874 ) ;
#802 = ORIENTED_EDGE ( 'NONE', *, *, #934, .T. ) ;
#803 = DIRECTION ( 'NONE',  ( -0.000000000000000000, 0.000000000000000000, -1.000000000000000000 ) ) ;
#804 = DIRECTION ( 'NONE',  ( -1.000000000000000000, 0.000000000000000000, 0.000000000000000000 ) ) ;
#805 = VERTEX_POINT ( 'NONE', #1138 ) ;
#806 = ORIENTED_EDGE ( 'NONE', *, *, #35, .F. ) ;
#807 = CARTESIAN_POINT ( 'NONE',  ( 3.061616997868383461E-19, 0.000000000000000000, 0.002500000000000000919 ) ) ;
#808 = CYLINDRICAL_SURFACE ( 'NONE', #581, 0.001000000000000000021 ) ;
#809 = AXIS2_PLACEMENT_3D ( 'NONE', #344, #337, #699 ) ;
#810 = ORIENTED_EDGE ( 'NONE', *, *, #255, .T. ) ;
#811 = LINE ( 'NONE', #18, #227 ) ;
#812 = EDGE_CURVE ( 'NONE', #600, #428, #339, .T. ) ;
#813 = CARTESIAN_POINT ( 'NONE',  ( 0.05306851990679013753, 0.03544709475013693711, 0.02912042983983994388 ) ) ;
#814 = VERTEX_POINT ( 'NONE', #957 ) ;
#815 = DIRECTION ( 'NONE',  ( 0.000000000000000000, -1.000000000000000000, 0.000000000000000000 ) ) ;
#816 = ADVANCED_FACE ( 'NONE', ( #880 ), #254, .T. ) ;
#817 = ORIENTED_EDGE ( 'NONE', *, *, #507, .T. ) ;
#818 = VECTOR ( 'NONE', #956, 39.37007874015748143 ) ;
#819 = CARTESIAN_POINT ( 'NONE',  ( 0.05359098419332996438, 0.03487032299230664184, 0.02858747270183614742 ) ) ;
#820 = ORIENTED_EDGE ( 'NONE', *, *, #235, .F. ) ;
#821 = FACE_OUTER_BOUND ( 'NONE', #797, .T. ) ;
#822 = LINE ( 'NONE', #208, #78 ) ;
#823 = EDGE_CURVE ( 'NONE', #914, #1001, #436, .T. ) ;
#824 = ORIENTED_EDGE ( 'NONE', *, *, #850, .T. ) ;
#825 = CARTESIAN_POINT ( 'NONE',  ( 0.000000000000000000, 0.000000000000000000, 0.000000000000000000 ) ) ;
#826 = ORIENTED_EDGE ( 'NONE', *, *, #870, .F. ) ;
#827 = LINE ( 'NONE', #615, #873 ) ;
#828 = CARTESIAN_POINT ( 'NONE',  ( 0.05306250466122236498, 0.03545180738855342739, 0.001859488065808219404 ) ) ;
#829 = AXIS2_PLACEMENT_3D ( 'NONE', #361, #885, #21 ) ;
#830 = ORIENTED_EDGE ( 'NONE', *, *, #707, .T. ) ;
#831 =( NAMED_UNIT ( * ) PLANE_ANGLE_UNIT ( ) SI_UNIT ( $, .RADIAN. ) );
#832 = VERTEX_POINT ( 'NONE', #708 ) ;
#833 = CARTESIAN_POINT ( 'NONE',  ( 0.05399999999999999939, 0.03349999999999999506, 0.002499999999999998751 ) ) ;
#834 = DIRECTION ( 'NONE',  ( -0.000000000000000000, -0.000000000000000000, -1.000000000000000000 ) ) ;
#835 = EDGE_CURVE ( 'NONE', #941, #401, #1052, .T. ) ;
#836 = PRESENTATION_STYLE_ASSIGNMENT (( #1099 ) ) ;
#837 = DIRECTION ( 'NONE',  ( 0.000000000000000000, -0.000000000000000000, 1.000000000000000000 ) ) ;
#838 = ORIENTED_EDGE ( 'NONE', *, *, #447, .T. ) ;
#839 = CARTESIAN_POINT ( 'NONE',  ( 0.05149999999999999717, 0.03349999999999999506, 0.03099999999999999978 ) ) ;
#840 = CARTESIAN_POINT ( 'NONE',  ( 0.05300000000000000544, 0.04499999999999999833, 1.224646799147353384E-18 ) ) ;
#841 = AXIS2_PLACEMENT_3D ( 'NONE', #999, #720, #728 ) ;
#842 = CARTESIAN_POINT ( 'NONE',  ( 0.009884282515737845970, 0.03540918767829128594, 0.001977326167726329957 ) ) ;
#843 = LINE ( 'NONE', #759, #1075 ) ;
#844 = ORIENTED_EDGE ( 'NONE', *, *, #746, .F. ) ;
#845 = CARTESIAN_POINT ( 'NONE',  ( 0.02999999999999999889, 0.008999999999999997585, 0.03099999999999999978 ) ) ;
#846 = AXIS2_PLACEMENT_3D ( 'NONE', #825, #1014, #27 ) ;
#847 = VECTOR ( 'NONE', #397, 39.37007874015748143 ) ;
#848 = EDGE_LOOP ( 'NONE', ( #1094, #25, #521, #772 ) ) ;
#849 = PLANE ( 'NONE',  #351 ) ;
#850 = EDGE_CURVE ( 'NONE', #326, #577, #56, .T. ) ;
#851 = CARTESIAN_POINT ( 'NONE',  ( 0.05400000000000000633, 0.04499999999999999833, 0.002500000000000000919 ) ) ;
#852 = EDGE_CURVE ( 'NONE', #911, #485, #398, .T. ) ;
#853 = CARTESIAN_POINT ( 'NONE',  ( 0.01149999999999999981, 0.03599999999999999728, 0.03099999999999999978 ) ) ;
#854 = VERTEX_POINT ( 'NONE', #79 ) ;
#855 = ORIENTED_EDGE ( 'NONE', *, *, #12, .T. ) ;
#856 = CYLINDRICAL_SURFACE ( 'NONE', #114, 0.008999999999999999320 ) ;
#857 = CARTESIAN_POINT ( 'NONE',  ( 0.01000000000000000021, 0.03550000000000032990, 0.02940770322694394659 ) ) ;
#858 = VECTOR ( 'NONE', #268, 39.37007874015748143 ) ;
#859 = CARTESIAN_POINT ( 'NONE',  ( 0.05399999999999999939, 0.03599999999999999728, 0.03099999999999999978 ) ) ;
#860 = DIRECTION ( 'NONE',  ( 7.114187483500684848E-17, -1.000000000000000000, 0.000000000000000000 ) ) ;
#861 = VERTEX_POINT ( 'NONE', #442 ) ;
#862 = CARTESIAN_POINT ( 'NONE',  ( 0.05399999999999999939, 0.000000000000000000, 0.03099999999999999978 ) ) ;
#863 = ADVANCED_FACE ( 'NONE', ( #449 ), #1058, .T. ) ;
#864 = LINE ( 'NONE', #540, #370 ) ;
#865 = VERTEX_POINT ( 'NONE', #795 ) ;
#866 = LINE ( 'NONE', #343, #928 ) ;
#867 = VECTOR ( 'NONE', #696, 39.37007874015748143 ) ;
#868 = CARTESIAN_POINT ( 'NONE',  ( 0.05149999999999999717, 0.01149999999999999981, 0.02850000000000000103 ) ) ;
#869 = DIRECTION ( 'NONE',  ( 0.000000000000000000, -1.000000000000000000, 0.000000000000000000 ) ) ;
#870 = EDGE_CURVE ( 'NONE', #471, #44, #822, .T. ) ;
#871 = EDGE_LOOP ( 'NONE', ( #137, #8, #94, #14 ) ) ;
#872 = DIRECTION ( 'NONE',  ( -0.000000000000000000, 0.000000000000000000, -1.000000000000000000 ) ) ;
#873 = VECTOR ( 'NONE', #252, 39.37007874015748143 ) ;
#874 = DIRECTION ( 'NONE',  ( 1.000000000000000000, 0.000000000000000000, 0.000000000000000000 ) ) ;
#875 = AXIS2_PLACEMENT_3D ( 'NONE', #365, #296, #981 ) ;
#876 = CARTESIAN_POINT ( 'NONE',  ( -0.000000000000000000, 0.04499999999999999833, 0.000000000000000000 ) ) ;
#877 = VERTEX_POINT ( 'NONE', #894 ) ;
#878 = LINE ( 'NONE', #246, #379 ) ;
#879 = CARTESIAN_POINT ( 'NONE',  ( 0.009274200917871937982, 0.03465397109670208947, 0.02853535127597784521 ) ) ;
#880 = FACE_OUTER_BOUND ( 'NONE', #643, .T. ) ;
#881 = DIRECTION ( 'NONE',  ( 2.134256245050206441E-16, 0.000000000000000000, 1.000000000000000000 ) ) ;
#882 = ORIENTED_EDGE ( 'NONE', *, *, #205, .F. ) ;
#883 = PLANE ( 'NONE',  #533 ) ;
#884 = LINE ( 'NONE', #987, #906 ) ;
#885 = DIRECTION ( 'NONE',  ( -1.000000000000000000, 0.000000000000000000, 0.000000000000000000 ) ) ;
#886 = ADVANCED_FACE ( 'NONE', ( #996 ), #378, .F. ) ;
#887 = CARTESIAN_POINT ( 'NONE',  ( 0.000000000000000000, 0.008999999999999997585, 0.02850000000000000103 ) ) ;
#888 = FACE_OUTER_BOUND ( 'NONE', #628, .T. ) ;
#889 = ORIENTED_EDGE ( 'NONE', *, *, #1082, .T. ) ;
#890 = FACE_OUTER_BOUND ( 'NONE', #126, .T. ) ;
#891 = PRODUCT ( 'RCUCTE', 'RCUCTE', '', ( #211 ) ) ;
#892 = DIRECTION ( 'NONE',  ( -1.000000000000000000, 0.000000000000000000, 0.000000000000000000 ) ) ;
#893 = DIRECTION ( 'NONE',  ( -0.000000000000000000, 1.000000000000000000, -0.000000000000000000 ) ) ;
#894 = CARTESIAN_POINT ( 'NONE',  ( 0.01149999999999999981, 0.008999999999999995851, 0.002499999999999998751 ) ) ;
#895 = AXIS2_PLACEMENT_3D ( 'NONE', #60, #1031, #763 ) ;
#896 = ORIENTED_EDGE ( 'NONE', *, *, #519, .F. ) ;
#897 = DIRECTION ( 'NONE',  ( 0.000000000000000000, 0.000000000000000000, 1.000000000000000000 ) ) ;
#898 = DIRECTION ( 'NONE',  ( -0.000000000000000000, -0.000000000000000000, -1.000000000000000000 ) ) ;
#899 = ORIENTED_EDGE ( 'NONE', *, *, #380, .T. ) ;
#900 = EDGE_CURVE ( 'NONE', #305, #741, #766, .T. ) ;
#901 = EDGE_CURVE ( 'NONE', #648, #655, #249, .T. ) ;
#902 = ORIENTED_EDGE ( 'NONE', *, *, #345, .F. ) ;
#903 = PLANE ( 'NONE',  #733 ) ;
#904 = CARTESIAN_POINT ( 'NONE',  ( 0.05343530240793468306, 0.03508714497226483875, 0.02866799827590592320 ) ) ;
#905 = VERTEX_POINT ( 'NONE', #408 ) ;
#906 = VECTOR ( 'NONE', #7, 39.37007874015748143 ) ;
#907 = ORIENTED_EDGE ( 'NONE', *, *, #900, .F. ) ;
#908 = EDGE_CURVE ( 'NONE', #599, #877, #687, .T. ) ;
#909 = CARTESIAN_POINT ( 'NONE',  ( 0.01000000000000000021, 0.000000000000000000, 0.02850000000000000103 ) ) ;
#910 = VERTEX_POINT ( 'NONE', #506 ) ;
#911 = VERTEX_POINT ( 'NONE', #32 ) ;
#912 = AXIS2_PLACEMENT_3D ( 'NONE', #976, #1065, #717 ) ;
#913 = VECTOR ( 'NONE', #353, 39.37007874015748143 ) ;
#914 = VERTEX_POINT ( 'NONE', #1107 ) ;
#915 = DIRECTION ( 'NONE',  ( 1.000000000000000000, 0.000000000000000000, 0.000000000000000000 ) ) ;
#916 =( CONVERSION_BASED_UNIT ( 'INCH', #1020 ) LENGTH_UNIT ( ) NAMED_UNIT ( #986 ) );
#917 = SHAPE_DEFINITION_REPRESENTATION ( #553, #1117 ) ;
#918 = ORIENTED_EDGE ( 'NONE', *, *, #789, .T. ) ;
#919 = DIRECTION ( 'NONE',  ( -0.000000000000000000, -0.000000000000000000, -1.000000000000000000 ) ) ;
#920 = EDGE_CURVE ( 'NONE', #152, #600, #750, .T. ) ;
#921 = CARTESIAN_POINT ( 'NONE',  ( 0.009000000000000001055, 0.04499999999999999833, 0.02850000000000000103 ) ) ;
#922 = B_SPLINE_CURVE_WITH_KNOTS ( 'NONE', 3,
 ( #538, #857, #630, #169, #59, #712, #774, #446, #154, #1045, #424, #1051, #1125, #332, #879, #611, #1142, #523, #783, #705, #253, #617 ),
 .UNSPECIFIED., .F., .F.,
 ( 4, 3, 3, 3, 3, 3, 3, 4 ),
 ( 0.000000000000000000, 7.033014106871272034E-06, 1.405003630304327007E-05, 2.124793648530040404E-05, 3.135866998531235356E-05, 4.589458987508770430E-05, 6.639459718459759141E-05, 7.152529613230433744E-05 ),
 .UNSPECIFIED. ) ;
#923 = VECTOR ( 'NONE', #1080, 39.37007874015748143 ) ;
#924 = ORIENTED_EDGE ( 'NONE', *, *, #4, .F. ) ;
#925 = CARTESIAN_POINT ( 'NONE',  ( 0.05303791348545458528, 0.03547099520832926178, 0.001772744456460344925 ) ) ;
#926 = CARTESIAN_POINT ( 'NONE',  ( 0.009773876682506722063, 0.03530996548346163749, 0.002140935161347611113 ) ) ;
#927 = DIRECTION ( 'NONE',  ( -0.000000000000000000, -1.000000000000000000, -0.000000000000000000 ) ) ;
#928 = VECTOR ( 'NONE', #153, 39.37007874015748143 ) ;
#929 = ORIENTED_EDGE ( 'NONE', *, *, #1060, .T. ) ;
#930 = DIRECTION ( 'NONE',  ( 0.000000000000000000, -0.000000000000000000, -1.000000000000000000 ) ) ;
#931 = CARTESIAN_POINT ( 'NONE',  ( 0.05399725092745756572, 0.03363532203591035330, 0.002500011262551321729 ) ) ;
#932 = VECTOR ( 'NONE', #346, 39.37007874015748143 ) ;
#933 = DIRECTION ( 'NONE',  ( -0.000000000000000000, 1.000000000000000000, -0.000000000000000000 ) ) ;
#934 = EDGE_CURVE ( 'NONE', #655, #730, #500, .T. ) ;
#935 = ORIENTED_EDGE ( 'NONE', *, *, #900, .T. ) ;
#936 = SURFACE_STYLE_FILL_AREA ( #38 ) ;
#937 = EDGE_CURVE ( 'NONE', #382, #510, #53, .T. ) ;
#938 = ORIENTED_EDGE ( 'NONE', *, *, #901, .T. ) ;
#939 = CARTESIAN_POINT ( 'NONE',  ( 0.000000000000000000, 0.000000000000000000, 0.000000000000000000 ) ) ;
#940 = CARTESIAN_POINT ( 'NONE',  ( 0.009140482275525151426, 0.03432624216056131411, 0.002490083193607148249 ) ) ;
#941 = VERTEX_POINT ( 'NONE', #755 ) ;
#942 = AXIS2_PLACEMENT_3D ( 'NONE', #1102, #930, #133 ) ;
#943 = ORIENTED_EDGE ( 'NONE', *, *, #653, .F. ) ;
#944 = CARTESIAN_POINT ( 'NONE',  ( 0.01149999999999999981, 0.008999999999999997585, 0.02850000000000000103 ) ) ;
#945 = CARTESIAN_POINT ( 'NONE',  ( 0.05372579908212807981, 0.03465397109670206172, 0.002464648724022157171 ) ) ;
#946 = EDGE_CURVE ( 'NONE', #1001, #905, #1114, .T. ) ;
#947 = FACE_OUTER_BOUND ( 'NONE', #739, .T. ) ;
#948 = DIRECTION ( 'NONE',  ( 0.000000000000000000, -0.000000000000000000, -1.000000000000000000 ) ) ;
#949 = ORIENTED_EDGE ( 'NONE', *, *, #870, .T. ) ;
#950 = LINE ( 'NONE', #522, #1083 ) ;
#951 = ADVANCED_FACE ( 'NONE', ( #267 ), #2, .F. ) ;
#952 = AXIS2_PLACEMENT_3D ( 'NONE', #652, #182, #551 ) ;
#953 = DIRECTION ( 'NONE',  ( -0.000000000000000000, 0.000000000000000000, -1.000000000000000000 ) ) ;
#954 = CARTESIAN_POINT ( 'NONE',  ( -6.402768735150613066E-19, 0.008999999999999995851, 0.002499999999999998751 ) ) ;
#955 = ORIENTED_EDGE ( 'NONE', *, *, #707, .F. ) ;
#956 = DIRECTION ( 'NONE',  ( -0.000000000000000000, -0.000000000000000000, -1.000000000000000000 ) ) ;
#957 = CARTESIAN_POINT ( 'NONE',  ( 0.01000000000000000021, 0.03550000000000032990, 0.000000000000000000 ) ) ;
#958 = ADVANCED_FACE ( 'NONE', ( #821 ), #975, .F. ) ;
#959 = DIRECTION ( 'NONE',  ( 0.000000000000000000, -0.000000000000000000, 1.000000000000000000 ) ) ;
#960 = ORIENTED_EDGE ( 'NONE', *, *, #619, .F. ) ;
#961 = DIRECTION ( 'NONE',  ( -0.000000000000000000, -0.000000000000000000, -1.000000000000000000 ) ) ;
#962 = AXIS2_PLACEMENT_3D ( 'NONE', #96, #1077, #463 ) ;
#963 = DIRECTION ( 'NONE',  ( -2.134256245050206441E-16, -0.000000000000000000, -1.000000000000000000 ) ) ;
#964 = DIRECTION ( 'NONE',  ( -2.134256245050206441E-16, -0.000000000000000000, -1.000000000000000000 ) ) ;
#965 = DIRECTION ( 'NONE',  ( 1.000000000000000000, 3.414809992080330699E-15, 0.000000000000000000 ) ) ;
#966 = ORIENTED_EDGE ( 'NONE', *, *, #1108, .T. ) ;
#967 = DIRECTION ( 'NONE',  ( -1.000000000000000000, 0.000000000000000000, 0.000000000000000000 ) ) ;
#968 = VECTOR ( 'NONE', #698, 39.37007874015748143 ) ;
#969 = DIRECTION ( 'NONE',  ( -1.000000000000000000, 0.000000000000000000, 0.000000000000000000 ) ) ;
#970 = DIRECTION ( 'NONE',  ( -0.000000000000000000, -0.000000000000000000, -1.000000000000000000 ) ) ;
#971 = EDGE_CURVE ( 'NONE', #792, #1104, #544, .T. ) ;
#972 = ORIENTED_EDGE ( 'NONE', *, *, #1144, .T. ) ;
#973 = DIRECTION ( 'NONE',  ( -0.000000000000000000, -0.000000000000000000, -1.000000000000000000 ) ) ;
#974 = EDGE_CURVE ( 'NONE', #905, #471, #281, .T. ) ;
#975 = PLANE ( 'NONE',  #108 ) ;
#976 = CARTESIAN_POINT ( 'NONE',  ( 0.01149999999999999981, 0.03349999999999999506, 0.03099999999999999978 ) ) ;
#977 = LINE ( 'NONE', #269, #338 ) ;
#978 = ORIENTED_EDGE ( 'NONE', *, *, #205, .T. ) ;
#979 = PLANE ( 'NONE',  #646 ) ;
#980 = CLOSED_SHELL ( 'NONE', ( #559, #323, #863, #291, #724, #1150, #1130, #289, #433, #737, #989, #1026, #620, #98, #770, #214, #272, #816, #585, #668, #634, #951, #464, #958, #537, #495, #886, #73, #297, #113, #713, #1013, #247, #1024 ) ) ;
#981 = DIRECTION ( 'NONE',  ( 1.000000000000000000, 0.000000000000000000, 0.000000000000000000 ) ) ;
#982 = AXIS2_PLACEMENT_3D ( 'NONE', #107, #815, #1064 ) ;
#983 = VECTOR ( 'NONE', #147, 39.37007874015748143 ) ;
#984 = ORIENTED_EDGE ( 'NONE', *, *, #183, .F. ) ;
#985 = DIRECTION ( 'NONE',  ( 1.000000000000000000, 0.000000000000000000, 0.000000000000000000 ) ) ;
#986 = DIMENSIONAL_EXPONENTS ( 1.000000000000000000, 0.000000000000000000, 0.000000000000000000, 0.000000000000000000, 0.000000000000000000, 0.000000000000000000, 0.000000000000000000 ) ;
#987 = CARTESIAN_POINT ( 'NONE',  ( 0.000000000000000000, 0.03599999999999999728, 0.03099999999999999978 ) ) ;
#988 = ORIENTED_EDGE ( 'NONE', *, *, #654, .F. ) ;
#989 = ADVANCED_FACE ( 'NONE', ( #455 ), #181, .T. ) ;
#990 = VECTOR ( 'NONE', #723, 39.37007874015748143 ) ;
#991 = VERTEX_POINT ( 'NONE', #9 ) ;
#992 = DIRECTION ( 'NONE',  ( -0.000000000000000000, -1.000000000000000000, -0.000000000000000000 ) ) ;
#993 = DIRECTION ( 'NONE',  ( 0.000000000000000000, 1.000000000000000000, 0.000000000000000000 ) ) ;
#994 = EDGE_LOOP ( 'NONE', ( #998, #225, #984, #143 ) ) ;
#995 = DIRECTION ( 'NONE',  ( -0.000000000000000000, -0.000000000000000000, -1.000000000000000000 ) ) ;
#996 = FACE_OUTER_BOUND ( 'NONE', #258, .T. ) ;
#997 = EDGE_CURVE ( 'NONE', #516, #412, #725, .T. ) ;
#998 = ORIENTED_EDGE ( 'NONE', *, *, #997, .F. ) ;
#999 = CARTESIAN_POINT ( 'NONE',  ( 0.009000000000000001055, 0.000000000000000000, 0.03099999999999999978 ) ) ;
#1000 = CARTESIAN_POINT ( 'NONE',  ( 0.05369951605071335288, 0.03470471357063344142, 0.02853882621719247559 ) ) ;
#1001 = VERTEX_POINT ( 'NONE', #469 ) ;
#1002 = UNCERTAINTY_MEASURE_WITH_UNIT (LENGTH_MEASURE( 1.000000000000000082E-05 ), #119, 'distance_accuracy_value', 'NONE');
#1003 = CIRCLE ( 'NONE', #778, 0.001000000000000000238 ) ;
#1004 = CIRCLE ( 'NONE', #1092, 0.002500000000000000052 ) ;
#1005 = ORIENTED_EDGE ( 'NONE', *, *, #335, .T. ) ;
#1006 =( LENGTH_UNIT ( ) NAMED_UNIT ( * ) SI_UNIT ( $, .METRE. ) );
#1007 = EDGE_LOOP ( 'NONE', ( #735, #311, #1062, #754 ) ) ;
#1008 = CARTESIAN_POINT ( 'NONE',  ( 0.06300000000000000044, 0.009000000000000001055, 0.002499999999999998751 ) ) ;
#1009 = DIRECTION ( 'NONE',  ( 0.000000000000000000, 1.000000000000000000, 0.000000000000000000 ) ) ;
#1010 = AXIS2_PLACEMENT_3D ( 'NONE', #549, #1068, #985 ) ;
#1011 = EDGE_LOOP ( 'NONE', ( #444, #802, #28, #844, #824, #820, #826, #63, #727 ) ) ;
#1012 = CARTESIAN_POINT ( 'NONE',  ( 0.05336895253827205615, 0.03516397959386327599, 0.002283094711696455077 ) ) ;
#1013 = ADVANCED_FACE ( 'NONE', ( #736 ), #808, .F. ) ;
#1014 = DIRECTION ( 'NONE',  ( 0.000000000000000000, 0.000000000000000000, 1.000000000000000000 ) ) ;
#1015 = ORIENTED_EDGE ( 'NONE', *, *, #800, .T. ) ;
#1016 = CARTESIAN_POINT ( 'NONE',  ( 0.01000000000000000021, 0.04499999999999999833, 0.001500000000000001115 ) ) ;
#1017 = CIRCLE ( 'NONE', #405, 0.008999999999999999320 ) ;
#1018 = DIRECTION ( 'NONE',  ( -0.000000000000000000, -0.000000000000000000, -1.000000000000000000 ) ) ;
#1019 = VECTOR ( 'NONE', #515, 39.37007874015748143 ) ;
#1020 = LENGTH_MEASURE_WITH_UNIT ( LENGTH_MEASURE( 0.02539999999999999897 ), #575 );
#1021 = APPLICATION_PROTOCOL_DEFINITION ( 'draft international standard', 'automotive_design', 1998, #673 ) ;
#1022 = ORIENTED_EDGE ( 'NONE', *, *, #417, .F. ) ;
#1023 = CARTESIAN_POINT ( 'NONE',  ( 0.05300000000000000544, 0.04499999999999999833, 0.02949999999999999845 ) ) ;
#1024 = ADVANCED_FACE ( 'NONE', ( #647 ), #564, .F. ) ;
#1025 = CARTESIAN_POINT ( 'NONE',  ( 0.009931480093209862914, 0.03544709475013693711, 0.001879570160160062842 ) ) ;
#1026 = ADVANCED_FACE ( 'NONE', ( #517 ), #1057, .F. ) ;
#1027 = ORIENTED_EDGE ( 'NONE', *, *, #937, .F. ) ;
#1028 = VECTOR ( 'NONE', #429, 39.37007874015748143 ) ;
#1029 = ORIENTED_EDGE ( 'NONE', *, *, #934, .F. ) ;
#1030 = DIRECTION ( 'NONE',  ( -0.000000000000000000, 0.000000000000000000, -1.000000000000000000 ) ) ;
#1031 = DIRECTION ( 'NONE',  ( 2.371395827833562438E-17, -1.000000000000000000, 0.000000000000000000 ) ) ;
#1032 = EDGE_CURVE ( 'NONE', #600, #270, #922, .T. ) ;
#1033 = DIRECTION ( 'NONE',  ( 1.000000000000000000, 0.000000000000000000, 0.000000000000000000 ) ) ;
#1034 = VERTEX_POINT ( 'NONE', #163 ) ;
#1035 = CARTESIAN_POINT ( 'NONE',  ( 0.02999999999999999889, 0.008999999999999997585, 0.02850000000000000103 ) ) ;
#1036 = DIRECTION ( 'NONE',  ( -1.000000000000000000, -7.114187483500684848E-17, 0.000000000000000000 ) ) ;
#1037 = CARTESIAN_POINT ( 'NONE',  ( 3.061616997868383461E-19, 0.000000000000000000, 0.002500000000000000919 ) ) ;
#1038 = DIRECTION ( 'NONE',  ( 1.000000000000000000, 0.000000000000000000, 0.000000000000000000 ) ) ;
#1039 = EDGE_LOOP ( 'NONE', ( #588, #465, #651, #282 ) ) ;
#1040 = LINE ( 'NONE', #704, #818 ) ;
#1041 = CARTESIAN_POINT ( 'NONE',  ( 0.009000000000000001055, 0.03349999999999999506, 0.002499999999999998751 ) ) ;
#1042 = DIRECTION ( 'NONE',  ( 1.000000000000000000, -0.000000000000000000, -2.134256245050206194E-16 ) ) ;
#1043 = ORIENTED_EDGE ( 'NONE', *, *, #197, .T. ) ;
#1044 = CARTESIAN_POINT ( 'NONE',  ( 0.03300000000000000155, 0.008999999999999997585, 0.002499999999999998751 ) ) ;
#1045 = CARTESIAN_POINT ( 'NONE',  ( 0.009706773975335963173, 0.03524193582673633418, 0.02879256056952711126 ) ) ;
#1046 = EDGE_CURVE ( 'NONE', #730, #854, #760, .T. ) ;
#1047 = VECTOR ( 'NONE', #590, 39.37007874015748143 ) ;
#1048 = CARTESIAN_POINT ( 'NONE',  ( 0.01149999999999999981, 0.008999999999999997585, 0.02850000000000000103 ) ) ;
#1049 = CARTESIAN_POINT ( 'NONE',  ( 0.01000000000000000021, 0.000000000000000000, 0.03099999999999999978 ) ) ;
#1050 = ORIENTED_EDGE ( 'NONE', *, *, #850, .F. ) ;
#1051 = CARTESIAN_POINT ( 'NONE',  ( 0.009550350813107759060, 0.03506996592346910829, 0.02866082539907120058 ) ) ;
#1052 = LINE ( 'NONE', #618, #592 ) ;
#1053 = LINE ( 'NONE', #1049, #867 ) ;
#1054 = EDGE_LOOP ( 'NONE', ( #118, #838, #228, #1022 ) ) ;
#1055 = DIRECTION ( 'NONE',  ( 1.000000000000000000, 0.000000000000000000, -0.000000000000000000 ) ) ;
#1056 =( GEOMETRIC_REPRESENTATION_CONTEXT ( 3 ) GLOBAL_UNCERTAINTY_ASSIGNED_CONTEXT ( ( #688 ) ) GLOBAL_UNIT_ASSIGNED_CONTEXT ( ( #1095, #230, #50 ) ) REPRESENTATION_CONTEXT ( 'NONE', 'WORKASPACE' ) );
#1057 = PLANE ( 'NONE',  #809 ) ;
#1058 = CYLINDRICAL_SURFACE ( 'NONE', #439, 0.009000000000000001055 ) ;
#1059 = EDGE_CURVE ( 'NONE', #905, #941, #77, .T. ) ;
#1060 = EDGE_CURVE ( 'NONE', #681, #658, #279, .T. ) ;
#1061 = CARTESIAN_POINT ( 'NONE',  ( 0.05399999999999999939, 0.000000000000000000, 0.02850000000000000103 ) ) ;
#1062 = ORIENTED_EDGE ( 'NONE', *, *, #676, .F. ) ;
#1063 = DIRECTION ( 'NONE',  ( -1.000000000000000000, 0.000000000000000000, 0.000000000000000000 ) ) ;
#1064 = DIRECTION ( 'NONE',  ( 0.000000000000000000, 0.000000000000000000, -1.000000000000000000 ) ) ;
#1065 = DIRECTION ( 'NONE',  ( 0.000000000000000000, -0.000000000000000000, -1.000000000000000000 ) ) ;
#1066 = DIRECTION ( 'NONE',  ( 0.000000000000000000, 0.000000000000000000, -1.000000000000000000 ) ) ;
#1067 = VERTEX_POINT ( 'NONE', #294 ) ;
#1068 = DIRECTION ( 'NONE',  ( -0.000000000000000000, 0.000000000000000000, 1.000000000000000000 ) ) ;
#1069 = LINE ( 'NONE', #909, #159 ) ;
#1070 = CARTESIAN_POINT ( 'NONE',  ( 0.03300000000000000155, 0.008999999999999997585, 0.03099999999999999978 ) ) ;
#1071 = ORIENTED_EDGE ( 'NONE', *, *, #76, .T. ) ;
#1072 = PLANE ( 'NONE',  #324 ) ;
#1073 = EDGE_CURVE ( 'NONE', #814, #722, #650, .T. ) ;
#1074 = CARTESIAN_POINT ( 'NONE',  ( 0.009000000000000001055, 0.03599999999999999728, 0.03099999999999999978 ) ) ;
#1075 = VECTOR ( 'NONE', #771, 39.37007874015748143 ) ;
#1076 = ORIENTED_EDGE ( 'NONE', *, *, #908, .F. ) ;
#1077 = DIRECTION ( 'NONE',  ( 1.000000000000000000, 0.000000000000000000, -0.000000000000000000 ) ) ;
#1078 = ORIENTED_EDGE ( 'NONE', *, *, #971, .F. ) ;
#1079 = CARTESIAN_POINT ( 'NONE',  ( 0.009000000000000001055, 0.04499999999999999833, 0.02949999999999999845 ) ) ;
#1080 = DIRECTION ( 'NONE',  ( 0.000000000000000000, -1.000000000000000000, 0.000000000000000000 ) ) ;
#1081 = ORIENTED_EDGE ( 'NONE', *, *, #1032, .T. ) ;
#1082 = EDGE_CURVE ( 'NONE', #511, #805, #386, .T. ) ;
#1083 = VECTOR ( 'NONE', #579, 39.37007874015748143 ) ;
#1084 = CIRCLE ( 'NONE', #97, 0.008999999999999999320 ) ;
#1085 = ORIENTED_EDGE ( 'NONE', *, *, #534, .T. ) ;
#1086 = CARTESIAN_POINT ( 'NONE',  ( 0.01000000000000000021, 0.03550000000000032990, 0.02949999999999999845 ) ) ;
#1087 = CARTESIAN_POINT ( 'NONE',  ( 0.05399999999999999939, 0.03349999999999999506, 0.02850000000000000103 ) ) ;
#1088 = VERTEX_POINT ( 'NONE', #476 ) ;
#1089 = EDGE_LOOP ( 'NONE', ( #23, #810, #102, #377 ) ) ;
#1090 = ORIENTED_EDGE ( 'NONE', *, *, #1144, .F. ) ;
#1091 = CARTESIAN_POINT ( 'NONE',  ( 0.009000000000000001055, 0.000000000000000000, 0.02850000000000000103 ) ) ;
#1092 = AXIS2_PLACEMENT_3D ( 'NONE', #578, #919, #121 ) ;
#1093 = EDGE_CURVE ( 'NONE', #516, #861, #1069, .T. ) ;
#1094 = ORIENTED_EDGE ( 'NONE', *, *, #1032, .F. ) ;
#1095 =( CONVERSION_BASED_UNIT ( 'INCH', #483 ) LENGTH_UNIT ( ) NAMED_UNIT ( #369 ) );
#1096 = ORIENTED_EDGE ( 'NONE', *, *, #4, .T. ) ;
#1097 = DIRECTION ( 'NONE',  ( -0.000000000000000000, 0.000000000000000000, -1.000000000000000000 ) ) ;
#1098 = AXIS2_PLACEMENT_3D ( 'NONE', #631, #177, #718 ) ;
#1099 = SURFACE_STYLE_USAGE ( .BOTH. , #752 ) ;
#1100 = VECTOR ( 'NONE', #306, 39.37007874015748143 ) ;
#1101 = ORIENTED_EDGE ( 'NONE', *, *, #61, .F. ) ;
#1102 = CARTESIAN_POINT ( 'NONE',  ( 0.009000000000000001055, 0.03599999999999999728, 0.002499999999999998751 ) ) ;
#1103 = CARTESIAN_POINT ( 'NONE',  ( 0.01000000000000000021, 0.000000000000000000, 0.000000000000000000 ) ) ;
#1104 = VERTEX_POINT ( 'NONE', #550 ) ;
#1105 = LINE ( 'NONE', #40, #847 ) ;
#1106 = EDGE_CURVE ( 'NONE', #730, #510, #1003, .T. ) ;
#1107 = CARTESIAN_POINT ( 'NONE',  ( 0.05399999999999999939, 0.000000000000000000, 0.02850000000000000103 ) ) ;
#1108 = EDGE_CURVE ( 'NONE', #357, #614, #276, .T. ) ;
#1109 = FACE_OUTER_BOUND ( 'NONE', #1054, .T. ) ;
#1110 = FILL_AREA_STYLE_COLOUR ( '', #545 ) ;
#1111 = PLANE ( 'NONE',  #202 ) ;
#1112 = ORIENTED_EDGE ( 'NONE', *, *, #706, .F. ) ;
#1113 = CARTESIAN_POINT ( 'NONE',  ( 0.05399999999999999939, 0.03349999999999999506, 0.002499999999999998751 ) ) ;
#1114 = LINE ( 'NONE', #320, #701 ) ;
#1115 = EDGE_CURVE ( 'NONE', #1104, #236, #884, .T. ) ;
#1116 = CARTESIAN_POINT ( 'NONE',  ( 0.06300000000000000044, 0.000000000000000000, 0.002499999999999998751 ) ) ;
#1117 = ADVANCED_BREP_SHAPE_REPRESENTATION ( 'RCUCTE', ( #33, #846 ), #1056 ) ;
#1118 = CIRCLE ( 'NONE', #288, 0.009000000000000001055 ) ;
#1119 = EDGE_LOOP ( 'NONE', ( #367, #817, #1090, #231, #1076, #300, #571, #806, #528 ) ) ;
#1120 = UNCERTAINTY_MEASURE_WITH_UNIT (LENGTH_MEASURE( 1.000000000000000082E-05 ), #916, 'distance_accuracy_value', 'NONE');
#1121 = DIRECTION ( 'NONE',  ( -0.000000000000000000, 0.000000000000000000, -1.000000000000000000 ) ) ;
#1122 = LINE ( 'NONE', #660, #67 ) ;
#1123 = EDGE_LOOP ( 'NONE', ( #245, #387, #830, #325 ) ) ;
#1124 = DIRECTION ( 'NONE',  ( -0.000000000000000000, -1.000000000000000000, 0.000000000000000000 ) ) ;
#1125 = CARTESIAN_POINT ( 'NONE',  ( 0.009476259110116330014, 0.03496781225318936620, 0.02862069501307498362 ) ) ;
#1126 = LINE ( 'NONE', #1116, #574 ) ;
#1127 = DIRECTION ( 'NONE',  ( 1.000000000000000000, 0.000000000000000000, 0.000000000000000000 ) ) ;
#1128 = AXIS2_PLACEMENT_3D ( 'NONE', #260, #963, #530 ) ;
#1129 = VECTOR ( 'NONE', #608, 39.37007874015748143 ) ;
#1130 = ADVANCED_FACE ( 'NONE', ( #556 ), #364, .T. ) ;
#1131 = EDGE_LOOP ( 'NONE', ( #719, #26, #715, #191 ) ) ;
#1132 = PLANE ( 'NONE',  #591 ) ;
#1133 = CARTESIAN_POINT ( 'NONE',  ( -0.000000000000000000, 0.03599999999999999728, 0.000000000000000000 ) ) ;
#1134 = CARTESIAN_POINT ( 'NONE',  ( 0.01000000000000000021, 0.04499999999999999833, 0.02949999999999999845 ) ) ;
#1135 = ORIENTED_EDGE ( 'NONE', *, *, #255, .F. ) ;
#1136 = CARTESIAN_POINT ( 'NONE',  ( 0.009000000000000001055, 0.008999999999999997585, 0.03099999999999999978 ) ) ;
#1137 = CIRCLE ( 'NONE', #3, 0.002499999999999998751 ) ;
#1138 = CARTESIAN_POINT ( 'NONE',  ( 0.05300000000000000544, 0.03550000000000032990, 0.02949999999999999845 ) ) ;
#1139 = CARTESIAN_POINT ( 'NONE',  ( 0.05399999999999999939, 1.280553747030123384E-18, 0.03099999999999999978 ) ) ;
#1140 = ORIENTED_EDGE ( 'NONE', *, *, #706, .T. ) ;
#1141 = CARTESIAN_POINT ( 'NONE',  ( 0.01000000000000000021, 0.000000000000000000, 0.02850000000000000103 ) ) ;
#1142 = CARTESIAN_POINT ( 'NONE',  ( 0.009095744479673205027, 0.03423507215930082781, 0.02849892166498901869 ) ) ;
#1143 = EDGE_CURVE ( 'NONE', #1088, #991, #467, .T. ) ;
#1144 = EDGE_CURVE ( 'NONE', #348, #865, #284, .T. ) ;
#1145 = DIRECTION ( 'NONE',  ( -0.000000000000000000, -0.000000000000000000, -1.000000000000000000 ) ) ;
#1146 = FACE_OUTER_BOUND ( 'NONE', #1039, .T. ) ;
#1147 = ORIENTED_EDGE ( 'NONE', *, *, #852, .F. ) ;
#1148 = FACE_OUTER_BOUND ( 'NONE', #1119, .T. ) ;
#1149 = VECTOR ( 'NONE', #762, 39.37007874015748143 ) ;
#1150 = ADVANCED_FACE ( 'NONE', ( #193 ), #1111, .T. ) ;
#1151 = CARTESIAN_POINT ( 'NONE',  ( 0.009000000000000001055, 0.03349999999999999506, 0.02850000000000000103 ) ) ;
#1152 = ORIENTED_EDGE ( 'NONE', *, *, #1143, .F. ) ;
#1153 = DIRECTION ( 'NONE',  ( -0.000000000000000000, -0.000000000000000000, 1.000000000000000000 ) ) ;
ENDSEC;
END-ISO-10303-21;
